<svg width="22" height="21" viewBox="0 0 22 21" fill="none" xmlns="http://www.w3.org/2000/svg">
<path fill-rule="evenodd" clip-rule="evenodd" d="M11.3368 9.61523C11.257 9.20312 11.3137 8.77624 11.4981 8.3992C11.6826 8.02215 11.9849 7.71545 12.3592 7.52551C12.7335 7.33556 13.1596 7.27271 13.5728 7.34646C13.986 7.42021 14.364 7.62654 14.6495 7.93425C15.0515 7.81391 15.4364 7.64217 15.7945 7.42331C15.6375 7.8655 15.3373 8.24262 14.9417 8.49489C15.3035 8.45062 15.6566 8.35213 15.9891 8.20272C15.7929 8.59192 15.4771 8.90792 15.088 9.1043C15.4047 13.5132 10.6544 16.1929 6.80566 14.0005C6.80566 14.0005 8.70543 14.098 9.50946 13.1723C9.50946 13.1723 8.34034 13.2698 7.75555 11.8569C8.04326 11.9549 8.35776 11.9376 8.63297 11.8085C8.21189 11.7144 7.83535 11.4798 7.56524 11.1434C7.29512 10.8069 7.14749 10.3886 7.1466 9.9571C7.27782 10.0548 7.42762 10.1246 7.58681 10.1623C7.746 10.2001 7.91124 10.2048 8.07234 10.1763C7.65279 9.92432 7.34886 9.51777 7.22587 9.04406C7.10288 8.57035 7.17065 8.06729 7.41461 7.64301C7.41461 7.64301 9.0222 9.68909 11.3363 9.61616" fill="white"/>
<path d="M10.9531 19.7812C16.1393 19.7812 20.3437 15.5768 20.3437 10.3906C20.3437 5.2043 16.1393 1 10.9531 1C5.7668 1 1.5625 5.2043 1.5625 10.3906C1.5625 15.5768 5.7668 19.7812 10.9531 19.7812Z" stroke="white" stroke-width="1.99938" stroke-miterlimit="10"/>
</svg>
