<svg width="22" height="21" viewBox="0 0 22 21" fill="none" xmlns="http://www.w3.org/2000/svg">
<path fill-rule="evenodd" clip-rule="evenodd" d="M8.99024 5.66599H13.3527C14.0294 5.66893 14.6775 5.93902 15.1559 6.41748C15.6344 6.89595 15.9045 7.54404 15.9074 8.22068V12.5604C15.9045 13.237 15.6344 13.8851 15.1559 14.3636C14.6775 14.8421 14.0294 15.1122 13.3527 15.1151H8.99024C8.31359 15.1122 7.6655 14.8421 7.18704 14.3636C6.70858 13.8851 6.43848 13.237 6.43555 12.5604V8.22022C6.43848 7.54357 6.70858 6.89548 7.18704 6.41702C7.6655 5.93856 8.31359 5.66893 8.99024 5.66599ZM13.7141 7.31539C13.858 7.31539 13.996 7.37255 14.0977 7.47429C14.1995 7.57604 14.2566 7.71403 14.2566 7.85792C14.2566 8.0018 14.1995 8.1398 14.0977 8.24154C13.996 8.34328 13.858 8.40044 13.7141 8.40044C13.5702 8.40044 13.4322 8.34328 13.3305 8.24154C13.2287 8.1398 13.1716 8.0018 13.1716 7.85792C13.1716 7.71403 13.2287 7.57604 13.3305 7.47429C13.4322 7.37255 13.5702 7.31539 13.7141 7.31539ZM11.1594 7.81286H11.1822C11.8656 7.81286 12.521 8.08434 13.0042 8.56757C13.4874 9.05081 13.7589 9.70622 13.7589 10.3896C13.7589 11.073 13.4874 11.7284 13.0042 12.2117C12.521 12.6949 11.8656 12.9664 11.1822 12.9664H11.1594C10.482 12.9573 9.83543 12.6818 9.35961 12.1995C8.8838 11.7173 8.61702 11.0671 8.61702 10.3896C8.61702 9.71215 8.8838 9.06193 9.35961 8.57968C9.83543 8.09744 10.482 7.82196 11.1594 7.81286ZM11.1594 8.69539H11.1822C11.6348 8.69539 12.0688 8.87518 12.3889 9.19522C12.7089 9.51526 12.8887 9.94932 12.8887 10.4019C12.8887 10.8545 12.7089 11.2886 12.3889 11.6086C12.0688 11.9287 11.6348 12.1085 11.1822 12.1085H11.1594C10.7068 12.1085 10.2727 11.9287 9.95271 11.6086C9.63267 11.2886 9.45287 10.8545 9.45287 10.4019C9.45287 9.94932 9.63267 9.51526 9.95271 9.19522C10.2727 8.87518 10.7068 8.69539 11.1594 8.69539ZM9.01207 6.48024H13.329C13.7972 6.48024 14.2461 6.6662 14.5771 6.99721C14.9081 7.32823 15.0941 7.77718 15.0941 8.2453V12.54C15.0941 13.0081 14.9081 13.457 14.5771 13.7881C14.2461 14.1191 13.7972 14.305 13.329 14.305H9.01207C8.54394 14.305 8.09501 14.1191 7.76399 13.7881C7.43298 13.457 7.24701 13.0081 7.24701 12.54V8.24251C7.24701 7.77439 7.43298 7.32544 7.76399 6.99443C8.09501 6.66341 8.54394 6.47745 9.01207 6.47745" fill="white"/>
<path d="M11.1718 19.7812C16.3581 19.7812 20.5624 15.5768 20.5624 10.3906C20.5624 5.2043 16.3581 1 11.1718 1C5.98555 1 1.78125 5.2043 1.78125 10.3906C1.78125 15.5768 5.98555 19.7812 11.1718 19.7812Z" stroke="white" stroke-width="1.99938" stroke-miterlimit="10"/>
</svg>
