<svg width="21" height="21" viewBox="0 0 21 21" fill="none" xmlns="http://www.w3.org/2000/svg">
<path d="M7.7383 13.7899H6.06897V8.36558H7.7383V13.7899ZM6.90364 7.66968C6.30163 7.66968 6.00011 7.39111 6.00011 6.83501C5.99824 6.72341 6.02059 6.61273 6.06562 6.51061C6.11065 6.40848 6.17729 6.31733 6.26094 6.24344C6.43492 6.08112 6.66579 5.9938 6.90364 6.00034C7.50564 6.00034 7.80716 6.27996 7.80716 6.83605C7.80716 7.39215 7.50668 7.66968 6.90364 7.66968ZM13.9294 13.7899H12.2257V10.7642C12.2257 9.97649 11.9461 9.58211 11.39 9.58211C10.9497 9.58211 10.6607 9.80225 10.5198 10.2425C10.475 10.3124 10.451 10.4522 10.451 10.6599V13.7899H8.74721V10.1038C8.74721 9.26911 8.73469 8.69006 8.71278 8.36558H10.1734L10.2778 9.09487C10.6607 8.51478 11.2168 8.22577 11.9815 8.22577C12.5627 8.22577 13.0311 8.42818 13.39 8.83404C13.751 9.23989 13.9305 9.8252 13.9305 10.591V13.7899H13.9294Z" fill="white"/>
<path d="M10.3906 19.7812C15.5768 19.7812 19.7812 15.5768 19.7812 10.3906C19.7812 5.2043 15.5768 1 10.3906 1C5.2043 1 1 5.2043 1 10.3906C1 15.5768 5.2043 19.7812 10.3906 19.7812Z" stroke="white" stroke-width="1.99938" stroke-miterlimit="10"/>
</svg>
