<svg width="21" height="21" viewBox="0 0 21 21" fill="none" xmlns="http://www.w3.org/2000/svg">
<path fill-rule="evenodd" clip-rule="evenodd" d="M9.28736 15.8802H11.3107V11.2135H12.8049L13.1041 9.32858H11.3102V7.9026C11.3204 7.7832 11.3542 7.667 11.4095 7.56069C11.4648 7.45438 11.5406 7.36006 11.6325 7.28317C11.7244 7.20627 11.8306 7.14832 11.945 7.11266C12.0594 7.07699 12.1798 7.06431 12.2991 7.07534H13.1728V5.51187L11.6093 5.44266C10.1151 5.34977 9.2869 6.52307 9.2869 7.92536V9.32812H7.58594V11.213H9.28736V15.8802Z" fill="white"/>
<path d="M10.3906 19.7812C15.5768 19.7812 19.7812 15.5768 19.7812 10.3906C19.7812 5.2043 15.5768 1 10.3906 1C5.2043 1 1 5.2043 1 10.3906C1 15.5768 5.2043 19.7812 10.3906 19.7812Z" stroke="white" stroke-width="1.99938" stroke-miterlimit="10"/>
</svg>
