<svg width="294" height="20" viewBox="0 0 294 20" fill="none" xmlns="http://www.w3.org/2000/svg">
<path d="M5 7C5 3.68629 7.68629 1 11 1H34C37.3137 1 40 3.68629 40 7V13C40 16.3137 37.3137 19 34 19H11C7.68629 19 5 16.3137 5 13V7Z" fill="white"/>
<path d="M5.25 7C5.25 3.82436 7.82436 1.25 11 1.25H34C37.1756 1.25 39.75 3.82436 39.75 7V13C39.75 16.1756 37.1756 18.75 34 18.75H11C7.82436 18.75 5.25 16.1756 5.25 13V7Z" stroke="black" stroke-opacity="0.3" stroke-width="0.5"/>
<path d="M20.6094 6.12109L19.3896 13.2788H21.3404L22.5611 6.12109H20.6094Z" fill="#00579F"/>
<path d="M17.7542 6.13041L15.8436 11.0118L15.6398 10.2747C15.263 9.38667 14.1933 8.11126 12.9375 7.30748L14.6845 13.2766L16.7487 13.2731L19.8208 6.12891L17.7542 6.13041Z" fill="#00579F"/>
<path d="M14.8995 6.64206C14.7861 6.20605 14.4575 6.0761 14.0495 6.06055H11.0251L11 6.20304C13.3536 6.77401 14.911 8.14977 15.5573 9.80399L14.8995 6.64206Z" fill="#FEA718"/>
<path d="M26.5152 7.49517C27.1534 7.48514 27.616 7.62462 27.9752 7.76912L28.1514 7.8519L28.4153 6.30054C28.0289 6.15554 27.4233 6 26.6677 6C24.7401 6 23.3814 6.97086 23.3708 8.36217C23.3583 9.39022 24.3387 9.96421 25.0792 10.3069C25.8394 10.6581 26.0942 10.8814 26.0907 11.195C26.0847 11.6741 25.4846 11.8939 24.9242 11.8939C24.143 11.8939 23.7281 11.786 23.0873 11.5191L22.836 11.4047L22.5615 13.0067C23.0181 13.2069 23.8605 13.379 24.735 13.388C26.7856 13.388 28.1182 12.4287 28.1323 10.9421C28.1408 10.1288 27.6205 9.50813 26.4931 8.99887C25.8108 8.66672 25.3933 8.44596 25.3973 8.1108C25.3973 7.81327 25.7516 7.49517 26.5152 7.49517Z" fill="#00579F"/>
<path d="M33.4219 6.13086H31.9146C31.4465 6.13086 31.0983 6.2583 30.8926 6.72491L27.9961 13.2846H30.0447C30.0447 13.2846 30.3788 12.4025 30.4546 12.2094C30.6789 12.2094 32.6693 12.2124 32.9527 12.2124C33.0109 12.4623 33.1906 13.2846 33.1906 13.2846H35.0003L33.4219 6.13086ZM31.016 10.7443C31.1766 10.3334 31.7932 8.7439 31.7932 8.7439C31.7827 8.76346 31.9523 8.32996 32.0531 8.06053L32.1846 8.67767C32.1846 8.67767 32.5584 10.3866 32.6366 10.7443H31.016Z" fill="#00579F"/>
<path d="M66 7C66 3.68629 68.6863 1 72 1H95C98.3137 1 101 3.68629 101 7V13C101 16.3137 98.3137 19 95 19H72C68.6863 19 66 16.3137 66 13V7Z" fill="white"/>
<path d="M66.25 7C66.25 3.82436 68.8244 1.25 72 1.25H95C98.1756 1.25 100.75 3.82436 100.75 7V13C100.75 16.1756 98.1756 18.75 95 18.75H72C68.8244 18.75 66.25 16.1756 66.25 13V7Z" stroke="black" stroke-opacity="0.3" stroke-width="0.5"/>
<path d="M78.1101 16V14.9091H78.4403V15.1094H78.4524C78.4751 15.0431 78.5135 14.9908 78.5675 14.9524C78.6214 14.9141 78.6858 14.8949 78.7607 14.8949C78.8364 14.8949 78.9013 14.9143 78.9553 14.9531C79.0092 14.992 79.0436 15.044 79.0582 15.1094H79.0696C79.09 15.0445 79.1297 14.9927 79.1889 14.9538C79.2481 14.9145 79.3179 14.8949 79.3984 14.8949C79.5017 14.8949 79.5855 14.928 79.6499 14.9943C79.7143 15.0601 79.7464 15.1506 79.7464 15.2656V16H79.3991V15.3452C79.3991 15.2907 79.3852 15.2493 79.3572 15.2209C79.3293 15.192 79.2931 15.1776 79.2486 15.1776C79.2008 15.1776 79.1631 15.1932 79.1357 15.2244C79.1087 15.2552 79.0952 15.2966 79.0952 15.3487V16H78.7614V15.3416C78.7614 15.291 78.7476 15.2509 78.7202 15.2216C78.6927 15.1922 78.6565 15.1776 78.6115 15.1776C78.5812 15.1776 78.5545 15.1849 78.5312 15.1996C78.508 15.2138 78.4898 15.2341 78.4766 15.2607C78.4638 15.2872 78.4574 15.3184 78.4574 15.3544V16H78.1101ZM80.2692 16.0185C80.1996 16.0185 80.1378 16.0069 80.0838 15.9837C80.0303 15.96 79.9879 15.9245 79.9567 15.8771C79.9259 15.8293 79.9105 15.7694 79.9105 15.6974C79.9105 15.6368 79.9212 15.5857 79.9425 15.544C79.9638 15.5024 79.9931 15.4685 80.0305 15.4425C80.0679 15.4164 80.111 15.3968 80.1598 15.3835C80.2086 15.3698 80.2607 15.3606 80.3161 15.3558C80.3781 15.3501 80.428 15.3442 80.4659 15.3381C80.5038 15.3314 80.5313 15.3222 80.5483 15.3104C80.5658 15.2981 80.5746 15.2808 80.5746 15.2585V15.255C80.5746 15.2185 80.562 15.1903 80.5369 15.1705C80.5118 15.1506 80.478 15.1406 80.4354 15.1406C80.3894 15.1406 80.3525 15.1506 80.3246 15.1705C80.2966 15.1903 80.2789 15.2178 80.2713 15.2528L79.951 15.2415C79.9605 15.1752 79.9848 15.116 80.0241 15.0639C80.0639 15.0114 80.1184 14.9702 80.1875 14.9403C80.2571 14.91 80.3407 14.8949 80.4382 14.8949C80.5078 14.8949 80.572 14.9032 80.6307 14.9197C80.6894 14.9358 80.7405 14.9595 80.7841 14.9908C80.8277 15.0215 80.8613 15.0594 80.8849 15.1044C80.9091 15.1494 80.9212 15.2008 80.9212 15.2585V16H80.5945V15.848H80.5859C80.5665 15.8849 80.5417 15.9162 80.5114 15.9418C80.4815 15.9673 80.4463 15.9865 80.4055 15.9993C80.3653 16.0121 80.3198 16.0185 80.2692 16.0185ZM80.3764 15.7912C80.4138 15.7912 80.4474 15.7836 80.4773 15.7685C80.5076 15.7533 80.5317 15.7325 80.5497 15.706C80.5677 15.679 80.5767 15.6477 80.5767 15.6122V15.5085C80.5668 15.5137 80.5547 15.5185 80.5405 15.5227C80.5268 15.527 80.5116 15.531 80.495 15.5348C80.4785 15.5386 80.4614 15.5419 80.4439 15.5447C80.4264 15.5476 80.4096 15.5502 80.3935 15.5526C80.3608 15.5578 80.3329 15.5658 80.3097 15.5767C80.2869 15.5876 80.2694 15.6018 80.2571 15.6193C80.2453 15.6364 80.2393 15.6567 80.2393 15.6804C80.2393 15.7164 80.2521 15.7438 80.2777 15.7628C80.3037 15.7817 80.3366 15.7912 80.3764 15.7912ZM82.0859 15.2422L81.767 15.2507C81.7637 15.228 81.7547 15.2079 81.7401 15.1903C81.7254 15.1723 81.7062 15.1584 81.6825 15.1484C81.6593 15.138 81.6323 15.1328 81.6016 15.1328C81.5613 15.1328 81.527 15.1409 81.4986 15.157C81.4706 15.1731 81.4569 15.1948 81.4574 15.2223C81.4569 15.2436 81.4654 15.2621 81.483 15.2777C81.5009 15.2933 81.5329 15.3059 81.5788 15.3153L81.7891 15.3551C81.898 15.3759 81.9789 15.4105 82.032 15.4588C82.0855 15.5071 82.1125 15.571 82.1129 15.6506C82.1125 15.7254 82.0902 15.7905 82.0462 15.8459C82.0026 15.9013 81.9429 15.9444 81.8672 15.9751C81.7914 16.0054 81.7048 16.0206 81.6072 16.0206C81.4515 16.0206 81.3286 15.9886 81.2386 15.9247C81.1491 15.8603 81.098 15.7741 81.0852 15.6662L81.4283 15.6577C81.4358 15.6974 81.4555 15.7277 81.4872 15.7486C81.5189 15.7694 81.5594 15.7798 81.6087 15.7798C81.6532 15.7798 81.6894 15.7715 81.7173 15.755C81.7453 15.7384 81.7595 15.7164 81.7599 15.6889C81.7595 15.6643 81.7486 15.6446 81.7273 15.63C81.706 15.6148 81.6726 15.603 81.6271 15.5945L81.4368 15.5582C81.3274 15.5384 81.246 15.5017 81.1925 15.4482C81.139 15.3942 81.1125 15.3255 81.1129 15.2422C81.1125 15.1693 81.1319 15.107 81.1712 15.0554C81.2105 15.0033 81.2663 14.9635 81.3388 14.9361C81.4112 14.9086 81.4967 14.8949 81.5952 14.8949C81.7429 14.8949 81.8594 14.9259 81.9446 14.9879C82.0298 15.0495 82.0769 15.1342 82.0859 15.2422ZM82.8997 14.9091V15.1648H82.2115V14.9091H82.8997ZM82.3556 14.6477H82.7029V15.657C82.7029 15.6783 82.7063 15.6955 82.7129 15.7088C82.72 15.7216 82.7302 15.7308 82.7434 15.7365C82.7567 15.7417 82.7725 15.7443 82.791 15.7443C82.8043 15.7443 82.8182 15.7431 82.8329 15.7408C82.8481 15.7379 82.8594 15.7356 82.867 15.7337L82.9196 15.9844C82.903 15.9891 82.8796 15.995 82.8493 16.0021C82.8194 16.0092 82.7837 16.0137 82.742 16.0156C82.6606 16.0194 82.5907 16.0099 82.5325 15.9872C82.4747 15.964 82.4305 15.928 82.3997 15.8793C82.3694 15.8305 82.3547 15.7692 82.3556 15.6953V14.6477ZM83.5751 16.0206C83.461 16.0206 83.3625 15.9981 83.2797 15.9531C83.1973 15.9077 83.1338 15.843 83.0893 15.7592C83.0453 15.675 83.0233 15.5748 83.0233 15.4588C83.0233 15.3461 83.0455 15.2476 83.09 15.1634C83.1345 15.0786 83.1973 15.0128 83.2782 14.9659C83.3592 14.9186 83.4546 14.8949 83.5645 14.8949C83.6421 14.8949 83.7131 14.907 83.7775 14.9311C83.8419 14.9553 83.8975 14.991 83.9444 15.0384C83.9913 15.0857 84.0278 15.1442 84.0538 15.2138C84.0798 15.2829 84.0929 15.3622 84.0929 15.4517V15.5384H83.1447V15.3366H83.7697C83.7692 15.2997 83.7605 15.2668 83.7434 15.2379C83.7264 15.209 83.7029 15.1866 83.6731 15.1705C83.6438 15.1539 83.6099 15.1456 83.5716 15.1456C83.5327 15.1456 83.4979 15.1544 83.4672 15.1719C83.4364 15.1889 83.412 15.2124 83.394 15.2422C83.376 15.2715 83.3665 15.3049 83.3656 15.3423V15.5476C83.3656 15.5921 83.3743 15.6312 83.3919 15.6648C83.4094 15.6979 83.4342 15.7237 83.4664 15.7422C83.4986 15.7607 83.537 15.7699 83.5815 15.7699C83.6123 15.7699 83.6402 15.7656 83.6653 15.7571C83.6904 15.7486 83.7119 15.736 83.7299 15.7195C83.7479 15.7029 83.7614 15.6825 83.7704 15.6584L84.0893 15.6676C84.0761 15.7391 84.0469 15.8014 84.002 15.8544C83.9574 15.907 83.899 15.9479 83.8265 15.9773C83.7541 16.0062 83.6703 16.0206 83.5751 16.0206ZM84.2702 16V14.9091H84.6076V15.108H84.619C84.6388 15.036 84.6713 14.9825 84.7163 14.9474C84.7612 14.9119 84.8136 14.8942 84.8732 14.8942C84.8893 14.8942 84.9059 14.8954 84.9229 14.8977C84.94 14.8996 84.9558 14.9027 84.9705 14.907V15.2088C84.954 15.2031 84.9322 15.1986 84.9052 15.1953C84.8787 15.192 84.855 15.1903 84.8342 15.1903C84.793 15.1903 84.7558 15.1996 84.7227 15.218C84.69 15.236 84.6642 15.2614 84.6452 15.294C84.6268 15.3262 84.6175 15.3641 84.6175 15.4077V16H84.2702ZM85.5646 16.0206C85.4496 16.0206 85.3509 15.9969 85.2685 15.9496C85.1866 15.9022 85.1236 15.8364 85.0795 15.7521C85.0355 15.6674 85.0135 15.5694 85.0135 15.4581C85.0135 15.3464 85.0355 15.2483 85.0795 15.1641C85.1241 15.0793 85.1873 15.0133 85.2692 14.9659C85.3516 14.9186 85.4498 14.8949 85.5639 14.8949C85.6648 14.8949 85.7526 14.9131 85.8274 14.9496C85.9027 14.986 85.9614 15.0376 86.0036 15.1044C86.0462 15.1707 86.0687 15.2486 86.071 15.3381H85.7464C85.7398 15.2822 85.7209 15.2384 85.6896 15.2067C85.6589 15.175 85.6186 15.1591 85.5689 15.1591C85.5286 15.1591 85.4934 15.1705 85.4631 15.1932C85.4328 15.2154 85.4091 15.2486 85.392 15.2926C85.3755 15.3362 85.3672 15.3902 85.3672 15.4545C85.3672 15.5189 85.3755 15.5734 85.392 15.6179C85.4091 15.6619 85.4328 15.6953 85.4631 15.718C85.4934 15.7403 85.5286 15.7514 85.5689 15.7514C85.6011 15.7514 85.6295 15.7446 85.6541 15.7308C85.6792 15.7171 85.6998 15.697 85.7159 15.6705C85.732 15.6435 85.7422 15.6108 85.7464 15.5724H86.071C86.0677 15.6624 86.0452 15.741 86.0036 15.8082C85.9624 15.8755 85.9044 15.9278 85.8295 15.9652C85.7552 16.0021 85.6669 16.0206 85.5646 16.0206ZM86.5563 16.0185C86.4867 16.0185 86.4249 16.0069 86.3709 15.9837C86.3174 15.96 86.275 15.9245 86.2438 15.8771C86.213 15.8293 86.1976 15.7694 86.1976 15.6974C86.1976 15.6368 86.2083 15.5857 86.2296 15.544C86.2509 15.5024 86.2802 15.4685 86.3176 15.4425C86.3551 15.4164 86.3981 15.3968 86.4469 15.3835C86.4957 15.3698 86.5478 15.3606 86.6032 15.3558C86.6652 15.3501 86.7151 15.3442 86.753 15.3381C86.7909 15.3314 86.8184 15.3222 86.8354 15.3104C86.8529 15.2981 86.8617 15.2808 86.8617 15.2585V15.255C86.8617 15.2185 86.8491 15.1903 86.824 15.1705C86.7989 15.1506 86.7651 15.1406 86.7225 15.1406C86.6766 15.1406 86.6396 15.1506 86.6117 15.1705C86.5837 15.1903 86.566 15.2178 86.5584 15.2528L86.2381 15.2415C86.2476 15.1752 86.272 15.116 86.3113 15.0639C86.351 15.0114 86.4055 14.9702 86.4746 14.9403C86.5442 14.91 86.6278 14.8949 86.7253 14.8949C86.7949 14.8949 86.8591 14.9032 86.9178 14.9197C86.9765 14.9358 87.0276 14.9595 87.0712 14.9908C87.1148 15.0215 87.1484 15.0594 87.1721 15.1044C87.1962 15.1494 87.2083 15.2008 87.2083 15.2585V16H86.8816V15.848H86.873C86.8536 15.8849 86.8288 15.9162 86.7985 15.9418C86.7686 15.9673 86.7334 15.9865 86.6926 15.9993C86.6524 16.0121 86.6069 16.0185 86.5563 16.0185ZM86.6635 15.7912C86.7009 15.7912 86.7346 15.7836 86.7644 15.7685C86.7947 15.7533 86.8188 15.7325 86.8368 15.706C86.8548 15.679 86.8638 15.6477 86.8638 15.6122V15.5085C86.8539 15.5137 86.8418 15.5185 86.8276 15.5227C86.8139 15.527 86.7987 15.531 86.7821 15.5348C86.7656 15.5386 86.7485 15.5419 86.731 15.5447C86.7135 15.5476 86.6967 15.5502 86.6806 15.5526C86.6479 15.5578 86.62 15.5658 86.5968 15.5767C86.574 15.5876 86.5565 15.6018 86.5442 15.6193C86.5324 15.6364 86.5265 15.6567 86.5265 15.6804C86.5265 15.7164 86.5392 15.7438 86.5648 15.7628C86.5908 15.7817 86.6238 15.7912 86.6635 15.7912ZM87.4206 16V14.9091H87.758V15.108H87.7694C87.7892 15.036 87.8217 14.9825 87.8667 14.9474C87.9116 14.9119 87.964 14.8942 88.0236 14.8942C88.0397 14.8942 88.0563 14.8954 88.0733 14.8977C88.0904 14.8996 88.1062 14.9027 88.1209 14.907V15.2088C88.1043 15.2031 88.0826 15.1986 88.0556 15.1953C88.0291 15.192 88.0054 15.1903 87.9846 15.1903C87.9434 15.1903 87.9062 15.1996 87.873 15.218C87.8404 15.236 87.8146 15.2614 87.7956 15.294C87.7772 15.3262 87.7679 15.3641 87.7679 15.4077V16H87.4206ZM88.6042 16.0156C88.5237 16.0156 88.4506 15.9948 88.3848 15.9531C88.319 15.9115 88.2664 15.849 88.2271 15.7656C88.1878 15.6823 88.1681 15.5788 88.1681 15.4553C88.1681 15.3269 88.1885 15.2214 88.2292 15.1385C88.2699 15.0556 88.3232 14.9943 88.389 14.9545C88.4553 14.9148 88.5266 14.8949 88.6028 14.8949C88.6601 14.8949 88.7091 14.9048 88.7498 14.9247C88.7905 14.9441 88.8242 14.9692 88.8507 15C88.8772 15.0308 88.8973 15.0627 88.911 15.0959H88.9181V14.5455H89.2654V16H88.9217V15.8232H88.911C88.8964 15.8568 88.8755 15.8883 88.8485 15.9176C88.8216 15.947 88.7877 15.9706 88.747 15.9886C88.7067 16.0066 88.6592 16.0156 88.6042 16.0156ZM88.725 15.745C88.7671 15.745 88.8031 15.7332 88.8329 15.7095C88.8627 15.6854 88.8857 15.6515 88.9018 15.608C88.9179 15.5644 88.926 15.5133 88.926 15.4545C88.926 15.3949 88.9179 15.3435 88.9018 15.3004C88.8862 15.2573 88.8632 15.2242 88.8329 15.201C88.8031 15.1778 88.7671 15.1662 88.725 15.1662C88.6819 15.1662 88.6454 15.178 88.6156 15.2017C88.5858 15.2254 88.563 15.2588 88.5474 15.3018C88.5323 15.3449 88.5247 15.3958 88.5247 15.4545C88.5247 15.5133 88.5325 15.5644 88.5481 15.608C88.5637 15.6515 88.5862 15.6854 88.6156 15.7095C88.6454 15.7332 88.6819 15.745 88.725 15.745Z" fill="black"/>
<path d="M86.1634 4.06055H81.8369V11.8607H86.1634V4.06055Z" fill="#FF5F00"/>
<path d="M82.1116 7.96065C82.1109 7.20944 82.2806 6.46792 82.6078 5.79223C82.935 5.11653 83.4111 4.52438 84.0001 4.06059C83.2707 3.48538 82.3947 3.12766 81.4722 3.02833C80.5497 2.929 79.618 3.09205 78.7835 3.49886C77.949 3.90567 77.2455 4.53982 76.7533 5.32882C76.261 6.11782 76 7.02984 76 7.96065C76 8.89145 76.261 9.80347 76.7533 10.5925C77.2455 11.3815 77.949 12.0156 78.7835 12.4224C79.618 12.8292 80.5497 12.9923 81.4722 12.893C82.3947 12.7936 83.2707 12.4359 84.0001 11.8607C83.4111 11.3969 82.935 10.8048 82.6078 10.1291C82.2806 9.45337 82.1109 8.71185 82.1116 7.96065Z" fill="#EB001B"/>
<path d="M91.9999 7.96065C91.9999 8.89143 91.7389 9.80345 91.2467 10.5925C90.7545 11.3815 90.051 12.0156 89.2165 12.4224C88.3821 12.8292 87.4503 12.9923 86.5279 12.893C85.6054 12.7936 84.7294 12.4359 84 11.8607C84.5885 11.3964 85.0643 10.8042 85.3914 10.1286C85.7185 9.45302 85.8885 8.71173 85.8885 7.96065C85.8885 7.20956 85.7185 6.46827 85.3914 5.79268C85.0643 5.1171 84.5885 4.52485 84 4.06059C84.7294 3.48538 85.6054 3.12766 86.5279 3.02833C87.4503 2.929 88.3821 3.09206 89.2165 3.49887C90.051 3.90568 90.7545 4.53983 91.2467 5.32883C91.7389 6.11784 91.9999 7.02986 91.9999 7.96065Z" fill="#F79E1B"/>
<path d="M91.528 11.0343V10.8746H91.5922V10.8421H91.4287V10.8746H91.4929V11.0343H91.528ZM91.8453 11.0343V10.8418H91.7952L91.7376 10.9742L91.68 10.8418H91.6298V11.0343H91.6652V10.8891L91.7192 11.0143H91.7559L91.81 10.8888V11.0343H91.8453Z" fill="#F79E1B"/>
<path d="M127 7C127 3.68629 129.686 1 133 1H156C159.314 1 162 3.68629 162 7V13C162 16.3137 159.314 19 156 19H133C129.686 19 127 16.3137 127 13V7Z" fill="white"/>
<path d="M127.25 7C127.25 3.82436 129.824 1.25 133 1.25H156C159.176 1.25 161.75 3.82436 161.75 7V13C161.75 16.1756 159.176 18.75 156 18.75H133C129.824 18.75 127.25 16.1756 127.25 13V7Z" stroke="black" stroke-opacity="0.3" stroke-width="0.5"/>
<g clip-path="url(#clip0_12057_14863)">
<path d="M145.239 7.64261C145.239 7.70733 145.291 7.75979 145.356 7.75979C145.421 7.75979 145.473 7.70733 145.473 7.64261C145.473 7.43186 145.309 7.27436 145.117 7.28503V7.22023C145.117 7.15552 145.065 7.10305 145 7.10305C144.935 7.10305 144.883 7.15552 144.883 7.22023V7.28503C144.69 7.272 144.526 7.43515 144.527 7.64261V7.80286C144.526 8.0077 144.69 8.17531 144.883 8.16043V8.56709C144.816 8.57512 144.761 8.52523 144.761 8.44389C144.761 8.37917 144.709 8.3267 144.644 8.3267C144.579 8.3267 144.527 8.37917 144.527 8.44389C144.527 8.64871 144.69 8.81635 144.883 8.80146V8.86627C144.883 8.93099 144.935 8.98346 145 8.98346C145.065 8.98346 145.117 8.93099 145.117 8.86627V8.80146C145.309 8.81212 145.474 8.65309 145.473 8.44389V8.28362C145.474 8.07282 145.309 7.91542 145.117 7.92604V7.5194C145.182 7.50833 145.239 7.56353 145.239 7.64261ZM144.883 7.92607C144.816 7.93412 144.761 7.8842 144.761 7.80287V7.64262C144.761 7.56526 144.818 7.50742 144.883 7.51942V7.92607ZM145.239 8.28364V8.4439C145.238 8.52084 145.182 8.57945 145.117 8.5671V8.16045C145.182 8.14932 145.239 8.20457 145.239 8.28364ZM145.539 4.24868C145.539 3.95145 145.297 3.70962 145 3.70962C144.703 3.70962 144.461 3.95145 144.461 4.24868C144.461 4.54592 144.703 4.78774 145 4.78774C145.297 4.78774 145.539 4.54592 145.539 4.24868ZM144.695 4.24868C144.695 4.08068 144.832 3.944 145 3.944C145.168 3.944 145.305 4.08068 145.305 4.24868C145.305 4.41668 145.168 4.55337 145 4.55337C144.832 4.55337 144.695 4.41668 144.695 4.24868ZM145 6.70049C144.26 6.70049 143.657 7.30286 143.657 8.04326C143.657 8.78367 144.26 9.38604 145 9.38604C145.74 9.38604 146.343 8.78367 146.343 8.04326C146.343 7.30286 145.74 6.70049 145 6.70049ZM145 9.15166C144.389 9.15166 143.892 8.65443 143.892 8.04326C143.892 7.43209 144.389 6.93486 145 6.93486C145.611 6.93486 146.108 7.43209 146.108 8.04326C146.108 8.65443 145.611 9.15166 145 9.15166ZM148.475 6.02527C148.746 6.04224 149.002 5.845 149 5.55652V5.20496C148.998 5.17138 148.987 5.12884 148.938 5.1018L145.284 3.07592C145.106 2.9773 144.894 2.9773 144.716 3.07592L143.242 3.89329C143.185 3.92467 143.164 3.996 143.196 4.05261C143.227 4.10921 143.299 4.12968 143.355 4.09828L144.83 3.28091C144.936 3.22173 145.064 3.22175 145.17 3.28091L148.43 5.08777H141.57L142.871 4.36642C142.928 4.33504 142.949 4.26371 142.917 4.2071C142.886 4.1505 142.814 4.13004 142.758 4.16143L141.062 5.10179C141.035 5.11757 141 5.15132 141 5.20496V5.55652C140.998 5.83246 141.247 6.05539 141.525 6.02527L141.938 6.60528V9.48124L141.525 10.0612H141.273C141.123 10.0612 141 10.1839 141 10.3347V10.7253C141 10.8761 141.123 10.9987 141.273 10.9987H148.727C148.877 10.9987 149 10.8761 149 10.7253V10.3347C149 10.1839 148.877 10.0612 148.727 10.0612H148.475L148.062 9.48124V6.60528L148.475 6.02527ZM141.469 5.7909C141.34 5.7909 141.234 5.68576 141.234 5.55652V5.32215H148.766V5.55652C148.766 5.68576 148.66 5.7909 148.531 5.7909H141.469ZM147.004 8.14389C147.069 8.14389 147.121 8.09142 147.121 8.0267V6.68508H147.828V9.40144H147.121V8.57357C147.121 8.50885 147.069 8.45639 147.004 8.45639C146.939 8.45639 146.887 8.50885 146.887 8.57357V9.48124L146.475 10.0612H143.525L143.113 9.48124V6.60528L143.525 6.02527H146.475L146.887 6.60528V8.0267C146.887 8.09142 146.939 8.14389 147.004 8.14389ZM141.813 6.02527H143.238L142.936 6.45071H142.115L141.813 6.02527ZM142.879 6.68508V9.40144H142.172V6.68508H142.879ZM142.115 9.63582H142.936L143.238 10.0612H141.813L142.115 9.63582ZM148.727 10.2956C148.748 10.2956 148.766 10.3131 148.766 10.3347V10.7253C148.766 10.7468 148.748 10.7644 148.727 10.7644H141.273C141.252 10.7644 141.234 10.7468 141.234 10.7253V10.3347C141.234 10.3131 141.252 10.2956 141.273 10.2956H148.727ZM148.187 10.0612H146.762L147.064 9.63582H147.885L148.187 10.0612ZM147.885 6.45071H147.064L146.762 6.02527H148.187L147.885 6.45071Z" fill="black"/>
</g>
<path d="M132.165 15V12.8182H133.075C133.238 12.8182 133.375 12.8413 133.485 12.8874C133.596 12.9336 133.679 12.9982 133.734 13.0813C133.79 13.1644 133.819 13.2607 133.819 13.37C133.819 13.4531 133.801 13.5273 133.766 13.5927C133.732 13.6573 133.684 13.7109 133.623 13.7536C133.561 13.7962 133.491 13.826 133.411 13.843V13.8643C133.499 13.8686 133.58 13.8924 133.654 13.9357C133.73 13.979 133.79 14.0394 133.836 14.1168C133.881 14.1935 133.904 14.2844 133.904 14.3896C133.904 14.5067 133.874 14.6115 133.814 14.7038C133.755 14.7955 133.668 14.8679 133.555 14.9212C133.442 14.9737 133.305 15 133.144 15H132.165ZM132.692 14.5749H133.018C133.133 14.5749 133.217 14.5533 133.271 14.5099C133.326 14.4666 133.353 14.4062 133.353 14.3288C133.353 14.2727 133.34 14.2244 133.314 14.1839C133.287 14.1428 133.25 14.1112 133.202 14.0891C133.153 14.0664 133.096 14.055 133.028 14.055H132.692V14.5749ZM132.692 13.7152H132.984C133.042 13.7152 133.093 13.7056 133.138 13.6864C133.183 13.6673 133.217 13.6396 133.242 13.6033C133.268 13.5671 133.281 13.5234 133.281 13.4723C133.281 13.3991 133.255 13.3416 133.203 13.2997C133.151 13.2578 133.081 13.2369 132.993 13.2369H132.692V13.7152ZM134.629 15H134.062L134.799 12.8182H135.501L136.237 15H135.67L135.158 13.3679H135.141L134.629 15ZM134.554 14.1413H135.738V14.5419H134.554V14.1413ZM138.329 12.8182V15H137.881L137.013 13.7408H136.999V15H136.472V12.8182H136.926L137.784 14.0753H137.802V12.8182H138.329ZM138.66 15V12.8182H139.188V13.7408H139.216L139.938 12.8182H140.559L139.785 13.7919L140.573 15H139.942L139.399 14.1424L139.188 14.4087V15H138.66ZM141.34 13.2464V12.8182H143.184V13.2464H142.522V15H142.002V13.2464H141.34ZM143.441 15V12.8182H144.343C144.506 12.8182 144.647 12.8477 144.766 12.9066C144.885 12.9648 144.977 13.0487 145.042 13.158C145.106 13.2667 145.139 13.3956 145.139 13.5447C145.139 13.696 145.106 13.8246 145.04 13.9304C144.973 14.0355 144.88 14.1158 144.758 14.1712C144.637 14.2259 144.493 14.2532 144.327 14.2532H143.757V13.8377H144.229C144.308 13.8377 144.375 13.8274 144.428 13.8068C144.482 13.7855 144.523 13.7536 144.551 13.7109C144.578 13.6676 144.592 13.6122 144.592 13.5447C144.592 13.4773 144.578 13.4215 144.551 13.3775C144.523 13.3327 144.482 13.2994 144.428 13.2773C144.374 13.2546 144.308 13.2433 144.229 13.2433H143.969V15H143.441ZM144.67 14.0028L145.213 15H144.638L144.105 14.0028H144.67ZM145.9 15H145.333L146.069 12.8182H146.771L147.507 15H146.941L146.428 13.3679H146.411L145.9 15ZM145.824 14.1413H147.009V14.5419H145.824V14.1413ZM149.599 12.8182V15H149.152L148.283 13.7408H148.27V15H147.742V12.8182H148.196L149.055 14.0753H149.073V12.8182H149.599ZM151.11 13.4723C151.103 13.3942 151.071 13.3335 151.015 13.2901C150.96 13.2461 150.881 13.2241 150.778 13.2241C150.71 13.2241 150.653 13.233 150.607 13.2507C150.562 13.2685 150.528 13.293 150.505 13.3242C150.482 13.3548 150.471 13.3899 150.47 13.4297C150.468 13.4624 150.475 13.4911 150.489 13.516C150.504 13.5408 150.525 13.5629 150.553 13.582C150.581 13.6005 150.615 13.6168 150.655 13.631C150.695 13.6452 150.74 13.6577 150.789 13.6683L150.977 13.7109C151.085 13.7344 151.18 13.7656 151.262 13.8047C151.346 13.8438 151.415 13.8903 151.471 13.9442C151.528 13.9982 151.571 14.0604 151.6 14.1307C151.629 14.201 151.644 14.2798 151.645 14.3672C151.644 14.505 151.609 14.6232 151.54 14.7219C151.472 14.8207 151.373 14.8963 151.243 14.9489C151.115 15.0014 150.96 15.0277 150.778 15.0277C150.595 15.0277 150.436 15.0004 150.3 14.9457C150.165 14.891 150.059 14.8079 149.984 14.6964C149.909 14.5849 149.87 14.4439 149.868 14.2734H150.373C150.377 14.3438 150.396 14.4023 150.429 14.4492C150.463 14.4961 150.509 14.5316 150.567 14.5558C150.626 14.5799 150.694 14.592 150.771 14.592C150.842 14.592 150.903 14.5824 150.952 14.5632C151.003 14.544 151.042 14.5174 151.069 14.4833C151.096 14.4492 151.109 14.4102 151.11 14.3661C151.109 14.3249 151.097 14.2898 151.072 14.2607C151.047 14.2308 151.009 14.2053 150.957 14.1839C150.906 14.1619 150.84 14.1417 150.761 14.1232L150.533 14.07C150.344 14.0266 150.195 13.9567 150.086 13.8601C149.978 13.7628 149.924 13.6314 149.924 13.4659C149.924 13.331 149.96 13.2127 150.033 13.1112C150.106 13.0096 150.207 12.9304 150.337 12.8736C150.466 12.8168 150.613 12.7884 150.779 12.7884C150.948 12.7884 151.094 12.8171 151.219 12.8746C151.344 12.9315 151.441 13.0114 151.51 13.1143C151.578 13.2173 151.614 13.3366 151.615 13.4723H151.11ZM151.911 15V12.8182H153.401V13.2464H152.439V13.6939H153.306V14.1232H152.439V15H151.911ZM153.666 15V12.8182H155.187V13.2464H154.193V13.6939H155.11V14.1232H154.193V14.5717H155.187V15H153.666ZM155.518 15V12.8182H156.419C156.582 12.8182 156.723 12.8477 156.842 12.9066C156.961 12.9648 157.053 13.0487 157.118 13.158C157.182 13.2667 157.215 13.3956 157.215 13.5447C157.215 13.696 157.182 13.8246 157.116 13.9304C157.05 14.0355 156.956 14.1158 156.834 14.1712C156.713 14.2259 156.569 14.2532 156.403 14.2532H155.833V13.8377H156.305C156.384 13.8377 156.451 13.8274 156.504 13.8068C156.558 13.7855 156.599 13.7536 156.627 13.7109C156.654 13.6676 156.668 13.6122 156.668 13.5447C156.668 13.4773 156.654 13.4215 156.627 13.3775C156.599 13.3327 156.558 13.2994 156.504 13.2773C156.45 13.2546 156.384 13.2433 156.305 13.2433H156.045V15H155.518ZM156.746 14.0028L157.289 15H156.714L156.181 14.0028H156.746Z" fill="black"/>
<path d="M249 7C249 3.68629 251.686 1 255 1H278C281.314 1 284 3.68629 284 7V13C284 16.3137 281.314 19 278 19H255C251.686 19 249 16.3137 249 13V7Z" fill="white"/>
<path d="M249.25 7C249.25 3.82436 251.824 1.25 255 1.25H278C281.176 1.25 283.75 3.82436 283.75 7V13C283.75 16.1756 281.176 18.75 278 18.75H255C251.824 18.75 249.25 16.1756 249.25 13V7Z" stroke="black" stroke-opacity="0.3" stroke-width="0.5"/>
<g clip-path="url(#clip1_12057_14863)">
<path d="M264.388 10C264.905 10 265.325 9.57944 265.325 9.0625V7.8125C265.325 7.29556 264.905 6.875 264.388 6.875C263.871 6.875 263.45 7.29556 263.45 7.8125V9.0625C263.45 9.57944 263.871 10 264.388 10ZM264.075 7.8125C264.075 7.64019 264.215 7.5 264.388 7.5C264.56 7.5 264.7 7.64019 264.7 7.8125V9.0625C264.7 9.23481 264.56 9.375 264.388 9.375C264.215 9.375 264.075 9.23481 264.075 9.0625V7.8125Z" fill="black"/>
<path d="M262.081 10C262.598 10 263.019 9.57944 263.019 9.0625C263.019 8.88991 262.879 8.75 262.706 8.75C262.533 8.75 262.394 8.88991 262.394 9.0625C262.394 9.23481 262.253 9.375 262.081 9.375C261.909 9.375 261.769 9.23481 261.769 9.0625V7.8125C261.769 7.64019 261.909 7.5 262.081 7.5C262.253 7.5 262.394 7.64019 262.394 7.8125C262.394 7.98509 262.533 8.125 262.706 8.125C262.879 8.125 263.019 7.98509 263.019 7.8125C263.019 7.29556 262.598 6.875 262.081 6.875C261.564 6.875 261.144 7.29556 261.144 7.8125V9.0625C261.144 9.57944 261.564 10 262.081 10Z" fill="black"/>
<path d="M266.106 10H266.731C267.248 10 267.669 9.57944 267.669 9.0625V7.8125C267.669 7.29556 267.248 6.875 266.731 6.875H266.106C265.934 6.875 265.794 7.01491 265.794 7.1875V9.6875C265.794 9.86009 265.934 10 266.106 10ZM266.419 7.5H266.731C266.904 7.5 267.044 7.64019 267.044 7.8125V9.0625C267.044 9.23481 266.904 9.375 266.731 9.375H266.419V7.5Z" fill="black"/>
<path d="M262.75 12.5C262.233 12.5 261.812 12.9206 261.812 13.4375C261.812 13.9544 262.233 14.375 262.75 14.375C263.267 14.375 263.688 13.9544 263.688 13.4375C263.688 12.9206 263.267 12.5 262.75 12.5ZM262.75 13.75C262.578 13.75 262.438 13.6098 262.438 13.4375C262.438 13.2652 262.578 13.125 262.75 13.125C262.922 13.125 263.063 13.2652 263.063 13.4375C263.063 13.6098 262.922 13.75 262.75 13.75Z" fill="black"/>
<path d="M271.25 12.5C270.733 12.5 270.312 12.9206 270.312 13.4375C270.312 13.9544 270.733 14.375 271.25 14.375C271.767 14.375 272.188 13.9544 272.188 13.4375C272.188 12.9206 271.767 12.5 271.25 12.5ZM271.25 13.75C271.078 13.75 270.938 13.6098 270.938 13.4375C270.938 13.2652 271.078 13.125 271.25 13.125C271.422 13.125 271.562 13.2652 271.562 13.4375C271.562 13.6098 271.422 13.75 271.25 13.75Z" fill="black"/>
<path d="M274.688 11.9589V10.9375C274.688 10.076 273.987 9.37505 273.125 9.37505H272.998L272.136 7.07784C271.986 6.67765 271.584 6.25006 270.906 6.25006H269.5V5.3125C269.5 4.79556 269.08 4.375 268.563 4.375H260.25C259.733 4.375 259.312 4.79556 259.312 5.3125V11.959C259.126 12.0672 259 12.2692 259 12.5V13.125C259 13.4697 259.28 13.75 259.625 13.75H260.585C260.737 14.8088 261.65 15.6251 262.75 15.6251C263.85 15.6251 264.763 14.8088 264.915 13.75H265.594C265.766 13.75 265.906 13.6101 265.906 13.4375C265.906 13.2649 265.766 13.125 265.594 13.125H264.915C264.884 12.9045 264.819 12.6944 264.726 12.5H269.274C269.181 12.6944 269.116 12.9045 269.085 13.125H268.406C268.234 13.125 268.094 13.2649 268.094 13.4375C268.094 13.6101 268.234 13.75 268.406 13.75H269.085C269.237 14.8088 270.15 15.6251 271.25 15.6251C272.35 15.6251 273.263 14.8088 273.415 13.75H274.375C274.72 13.75 275 13.4697 275 13.125V12.5C275 12.2692 274.874 12.0671 274.688 11.9589ZM271.862 8.12502L272.33 9.37505H270.75V8.12502H271.862ZM270.906 6.87503C271.345 6.87503 271.504 7.17027 271.551 7.29724L271.627 7.50002H270.438C270.265 7.50002 270.125 7.63993 270.125 7.81252V9.68755C270.125 9.86014 270.265 10.0001 270.438 10.0001H273.125C273.532 10.0001 273.88 10.2613 274.009 10.625H273.75C273.577 10.625 273.438 10.7649 273.438 10.9375C273.438 11.1101 273.577 11.25 273.75 11.25H274.063V11.875H272.779C272.385 11.4886 271.845 11.2501 271.25 11.2501C270.655 11.2501 270.115 11.4886 269.721 11.875H269.5V6.87506L270.906 6.87503ZM259.937 5.31247C259.937 5.14015 260.078 4.99997 260.25 4.99997H268.563C268.735 4.99997 268.875 5.14012 268.875 5.31247V11.875H264.279C263.885 11.4886 263.345 11.2501 262.75 11.2501C262.155 11.2501 261.615 11.4886 261.221 11.875H259.937V11.25H260.25C260.423 11.25 260.562 11.1101 260.562 10.9375C260.562 10.7649 260.423 10.625 260.25 10.625H259.937V5.31247ZM259.625 12.5H259.626H260.774C260.681 12.6944 260.616 12.9045 260.585 13.125H259.625V12.5ZM262.75 15C261.888 15 261.188 14.2991 261.188 13.4375C261.188 12.576 261.888 11.875 262.75 11.875C263.612 11.875 264.313 12.576 264.313 13.4375C264.313 14.2991 263.612 15 262.75 15ZM271.25 15C270.388 15 269.687 14.2991 269.687 13.4375C269.687 12.576 270.388 11.875 271.25 11.875C272.112 11.875 272.812 12.576 272.812 13.4375C272.812 14.2991 272.112 15 271.25 15ZM274.375 13.125H273.415C273.384 12.9044 273.319 12.6944 273.226 12.5H274.373C274.374 12.5 274.374 12.5 274.375 12.5V13.125Z" fill="black"/>
<path d="M267 13.125H267C266.827 13.125 266.688 13.2649 266.688 13.4375C266.688 13.6101 266.827 13.75 267 13.75C267.173 13.75 267.313 13.6101 267.313 13.4375C267.313 13.2649 267.173 13.125 267 13.125Z" fill="black"/>
</g>
<path d="M188 7C188 3.68629 190.686 1 194 1H217C220.314 1 223 3.68629 223 7V13C223 16.3137 220.314 19 217 19H194C190.686 19 188 16.3137 188 13V7Z" fill="white"/>
<path d="M188.25 7C188.25 3.82436 190.824 1.25 194 1.25H217C220.176 1.25 222.75 3.82436 222.75 7V13C222.75 16.1756 220.176 18.75 217 18.75H194C190.824 18.75 188.25 16.1756 188.25 13V7Z" stroke="black" stroke-opacity="0.3" stroke-width="0.5"/>
<g clip-path="url(#clip2_12057_14863)">
<path d="M208.779 7.83789L205.161 11.9994C207.413 11.9994 209.247 10.211 209.32 7.97718C209.323 7.90085 209.261 7.83789 209.184 7.83789H208.779Z" fill="#793BCC"/>
<path d="M205.023 3.67976C203.349 3.73484 201.925 4.77873 201.316 6.24609V7.83893H205.162V3.81561C205.162 3.73923 205.099 3.67724 205.023 3.67976Z" fill="#14CFFF"/>
<path d="M201.316 6.24609C201.113 6.73678 201 7.27468 201 7.83895C201 8.98812 201.466 10.0285 202.219 10.7816H205.161V7.83895L201.316 6.24609Z" fill="#3B88F5"/>
<path d="M205.161 7.83791L202.219 10.7805C202.972 11.5336 204.012 11.9994 205.161 11.9994C207.16 11.9994 208.779 10.1362 208.779 7.83789H205.161V7.83791Z" fill="#9255E3"/>
<path d="M205.912 3.00006C205.908 2.99992 205.904 3.00004 205.899 3.00031L209.457 7.22721H209.864C209.941 7.22721 210.003 7.16425 210 7.08792C209.928 4.8628 208.137 3.07206 205.912 3.00006Z" fill="#61CE5B"/>
<path d="M205.899 3C205.828 3.00444 205.772 3.06358 205.772 3.13559V7.09104C205.772 7.16607 205.833 7.22689 205.908 7.22689H209.456V7.0876C209.394 4.86441 207.836 3.0749 205.899 3Z" fill="#94E368"/>
</g>
<path d="M195.692 13.8182V16H195.165V13.8182H195.692ZM197.88 13.8182V16H197.433L196.565 14.7408H196.551V16H196.024V13.8182H196.477L197.336 15.0753H197.354V13.8182H197.88ZM199.391 14.4723C199.384 14.3942 199.353 14.3335 199.297 14.2901C199.241 14.2461 199.162 14.2241 199.059 14.2241C198.991 14.2241 198.934 14.233 198.888 14.2507C198.843 14.2685 198.809 14.293 198.786 14.3242C198.763 14.3548 198.752 14.3899 198.751 14.4297C198.75 14.4624 198.756 14.4911 198.77 14.516C198.785 14.5408 198.806 14.5629 198.834 14.582C198.863 14.6005 198.897 14.6168 198.936 14.631C198.976 14.6452 199.021 14.6577 199.071 14.6683L199.258 14.7109C199.366 14.7344 199.461 14.7656 199.544 14.8047C199.627 14.8438 199.696 14.8903 199.752 14.9442C199.809 14.9982 199.852 15.0604 199.881 15.1307C199.911 15.201 199.925 15.2798 199.926 15.3672C199.925 15.505 199.891 15.6232 199.822 15.7219C199.753 15.8207 199.654 15.8963 199.525 15.9489C199.396 16.0014 199.241 16.0277 199.059 16.0277C198.876 16.0277 198.717 16.0004 198.582 15.9457C198.446 15.891 198.341 15.8079 198.265 15.6964C198.19 15.5849 198.151 15.4439 198.149 15.2734H198.654C198.658 15.3438 198.677 15.4023 198.711 15.4492C198.744 15.4961 198.79 15.5316 198.848 15.5558C198.907 15.5799 198.975 15.592 199.053 15.592C199.124 15.592 199.184 15.5824 199.234 15.5632C199.284 15.544 199.323 15.5174 199.35 15.4833C199.377 15.4492 199.391 15.4102 199.391 15.3661C199.391 15.3249 199.378 15.2898 199.353 15.2607C199.328 15.2308 199.29 15.2053 199.238 15.1839C199.187 15.1619 199.121 15.1417 199.042 15.1232L198.814 15.07C198.625 15.0266 198.476 14.9567 198.368 14.8601C198.259 14.7628 198.205 14.6314 198.206 14.4659C198.205 14.331 198.241 14.2127 198.314 14.1112C198.387 14.0096 198.489 13.9304 198.618 13.8736C198.747 13.8168 198.895 13.7884 199.06 13.7884C199.229 13.7884 199.376 13.8171 199.5 13.8746C199.625 13.9315 199.722 14.0114 199.791 14.1143C199.86 14.2173 199.895 14.3366 199.896 14.4723H199.391ZM200.121 14.2464V13.8182H201.965V14.2464H201.304V16H200.784V14.2464H200.121ZM202.422 16H201.855L202.592 13.8182H203.294L204.03 16H203.463L202.951 14.3679H202.934L202.422 16ZM202.347 15.1413H203.531V15.5419H202.347V15.1413ZM204.265 16V13.8182H204.792V15.5717H205.7V16H204.265ZM205.973 16V13.8182H206.5V15.5717H207.408V16H205.973ZM207.681 13.8182H208.334L208.888 15.169H208.913L209.467 13.8182H210.12V16H209.607V14.6598H209.589L209.065 15.9862H208.737L208.212 14.6523H208.194V16H207.681V13.8182ZM210.449 16V13.8182H211.971V14.2464H210.977V14.6939H211.893V15.1232H210.977V15.5717H211.971V16H210.449ZM214.158 13.8182V16H213.71L212.842 14.7408H212.828V16H212.301V13.8182H212.755L213.613 15.0753H213.631V13.8182H214.158ZM214.418 14.2464V13.8182H216.262V14.2464H215.6V16H215.081V14.2464H214.418Z" fill="black"/>
<defs>
<clipPath id="clip0_12057_14863">
<rect width="8" height="8" fill="white" transform="translate(141 3)"/>
</clipPath>
<clipPath id="clip1_12057_14863">
<rect width="16" height="16" fill="white" transform="translate(259 2)"/>
</clipPath>
<clipPath id="clip2_12057_14863">
<rect width="9" height="9" fill="white" transform="translate(201 3)"/>
</clipPath>
</defs>
</svg>
