<svg width="42" height="28" viewBox="0 0 42 28" fill="none" xmlns="http://www.w3.org/2000/svg">
<path fill-rule="evenodd" clip-rule="evenodd" d="M7.97692 1C10.5872 2.59424 12.9448 3.34862 14.9686 3.17396C15.3216 10.0489 12.6824 15.3036 8.00393 17C3.48367 15.4113 0.811645 10.3388 1.01036 3.06434C3.38528 3.18511 5.71775 2.69272 7.97692 1ZM6.54541 8.86157C6.7255 9.00955 6.89562 9.16843 7.05473 9.33724C7.53569 8.5904 8.06875 7.87587 8.65023 7.19858C10.2399 5.34979 9.76534 5.47056 11.9705 5.47056L11.656 5.79758C10.8281 6.69199 10.0673 7.64202 9.37949 8.64046C8.6148 9.70547 7.92143 10.8164 7.30361 11.9664L7.11068 12.3213L6.93512 11.9609C6.6233 11.3053 6.22867 10.6894 5.7602 10.1269C5.33753 9.61262 4.83287 9.16609 4.26502 8.80397C4.55248 7.89537 5.92226 8.36175 6.53576 8.86157H6.54541Z" fill="#1DAB6E"/>
<path fill-rule="evenodd" clip-rule="evenodd" d="M7.87436 0C10.8212 1.86769 13.4831 2.75133 15.7677 2.54256C16.1667 10.613 13.1865 15.3788 7.90479 17.3678C2.80449 15.5062 -0.212217 10.9452 0.0116468 2.42009C2.69342 2.56045 5.32466 1.98057 7.87436 0ZM31.0256 8.66768L28.1432 8.64775V4.75536C28.1437 4.47956 28.0893 4.20641 27.9833 3.9518C27.8773 3.6972 27.7217 3.46622 27.5255 3.27231C27.3317 3.07616 27.1007 2.92053 26.8461 2.81448C26.5915 2.70844 26.3183 2.6541 26.0425 2.65462H17.5388C17.5031 3.02343 17.4468 3.40496 17.3884 3.79354H26.0425C26.3065 3.79354 26.5477 3.90297 26.7216 4.07647C26.8951 4.25037 27.0046 4.49163 27.0046 4.75536V22.5798H23.794C23.7192 22.5797 23.6451 22.5943 23.576 22.6229C23.5068 22.6515 23.444 22.6935 23.3911 22.7464C23.3382 22.7993 23.2963 22.8622 23.2677 22.9313C23.2392 23.0005 23.2246 23.0746 23.2247 23.1494C23.2246 23.2242 23.2392 23.2983 23.2678 23.3674C23.2963 23.4366 23.3383 23.4994 23.3912 23.5522C23.4441 23.6051 23.5069 23.647 23.576 23.6756C23.6451 23.7041 23.7192 23.7187 23.794 23.7186H27.5738C27.6486 23.7187 27.7227 23.7041 27.7918 23.6756C27.8609 23.647 27.9238 23.6051 27.9767 23.5522C28.0296 23.4994 28.0715 23.4366 28.1001 23.3674C28.1287 23.2983 28.1433 23.2242 28.1432 23.1494V22.5026H30.4437C30.7043 16.5773 39.2128 15.76 40.0783 22.5026H41.9472C42.4285 16.7249 39.5757 14.4795 35.2367 13.9717C34.9246 12.6157 34.3293 11.357 33.6568 10.1132C32.8573 8.63454 32.6711 8.69426 31.0256 8.66768ZM12.0652 22.5768C12.14 22.5767 12.2141 22.5913 12.2833 22.6198C12.3524 22.6484 12.4153 22.6903 12.4682 22.7432C12.5211 22.7961 12.5631 22.8589 12.5917 22.928C12.6202 22.9971 12.6349 23.0712 12.6348 23.1461C12.6349 23.2209 12.6203 23.295 12.5917 23.3641C12.5631 23.4333 12.5211 23.4961 12.4682 23.549C12.4153 23.6019 12.3524 23.6439 12.2833 23.6724C12.2141 23.701 12.14 23.7156 12.0652 23.7154H6.01643C5.4404 23.7154 4.91614 23.4644 4.53314 23.0689C4.1539 22.6734 3.91568 22.1328 3.91568 21.5601V17.5939C4.28267 17.8292 4.66285 18.0433 5.05436 18.235V21.5601C5.05436 21.8336 5.16716 22.0942 5.35041 22.284C5.52424 22.4642 5.75893 22.5798 6.01298 22.5798H12.0652V22.5768ZM17.8558 19.4255C15.726 19.4255 13.9987 21.153 13.9987 23.2826C13.9987 25.4122 15.726 27.1397 17.8558 27.1397C19.9854 27.1397 21.7126 25.4122 21.7126 23.2826C21.7095 21.153 19.9854 19.4255 17.8558 19.4255ZM17.8558 21.7997C17.0387 21.7997 16.3726 22.4625 16.3726 23.2826C16.3726 24.0997 17.0355 24.7659 17.8558 24.7659C18.6727 24.7659 19.3388 24.103 19.3388 23.2826C19.3354 22.4625 18.6727 21.7997 17.8558 21.7997ZM35.2496 18.858C33.1202 18.858 31.3928 20.5855 31.3928 22.715C31.3928 24.8445 33.1202 26.5722 35.2496 26.5722C37.3794 26.5722 39.1067 24.8445 39.1067 22.715C39.1067 20.5855 37.3794 18.858 35.2496 18.858ZM33.7667 22.715C33.7667 23.5321 34.4292 24.198 35.2496 24.198C36.07 24.198 36.7327 23.5355 36.7327 22.715C36.7327 21.8948 36.07 21.2322 35.2496 21.2322C34.4311 21.2322 33.7667 21.8962 33.7667 22.715ZM31.3027 10.314L29.5651 10.2818V13.9781H33.2455C32.7916 12.6597 32.1197 11.451 31.3027 10.314ZM7.87903 1.18699C10.3752 2.76913 12.7711 3.65844 14.7063 3.48149C15.0441 10.3176 12.3788 14.4958 7.9052 16.1806C3.58452 14.6036 0.88807 10.5996 1.07773 3.37772C3.58477 3.50914 5.88247 2.73813 7.87903 1.18699Z" fill="#1F2323"/>
</svg>
