<svg width="25" height="28" viewBox="0 0 25 28" fill="none" xmlns="http://www.w3.org/2000/svg">
<path fill-rule="evenodd" clip-rule="evenodd" d="M13.2535 0.556125C14.9159 1.64637 16.7084 2.52387 18.5891 3.16809C19.9846 3.65349 21.4636 3.85271 22.9378 3.75385L24.4672 3.61481L24.5424 5.151C24.8227 10.8011 23.9111 15.7105 21.9988 19.5829C20.0091 23.6125 16.9504 26.5231 13.0233 28H12.0022C8.16405 26.5983 5.12815 23.7675 3.11334 19.6877C1.233 15.8587 0.268895 10.9128 0.423881 5.01425L0.464907 3.49858L1.97146 3.57607C3.61149 3.68248 5.25776 3.51377 6.84211 3.07692C8.55711 2.57596 10.1586 1.74696 11.5578 0.635897L12.376 0L13.2535 0.556125ZM12.4626 1.80285C16.4239 4.30997 20 5.49972 23.0723 5.22165C23.6079 16.0684 19.6011 23.9499 12.5037 26.6234C5.65009 24.1185 1.59539 16.5128 1.89625 5.05527C5.49966 5.24217 9.03699 4.46496 12.4626 1.80285Z" fill="black"/>
<path fill-rule="evenodd" clip-rule="evenodd" d="M12.5252 4.10254C15.6089 6.05809 18.3941 6.98345 20.785 6.76921C21.2021 15.2023 18.0841 21.6478 12.5571 23.7288C7.21689 21.78 4.0602 15.5578 4.29495 6.63473C7.10065 6.78288 9.85621 6.17889 12.5252 4.10254ZM10.834 13.7458C11.0467 13.9274 11.2477 14.1222 11.4357 14.3293C12.0039 13.4132 12.6336 12.5367 13.3206 11.706C15.1987 9.43815 14.638 9.5863 17.2431 9.5863L16.8716 9.98744C15.8935 11.0846 14.9948 12.2499 14.1821 13.4746C13.2787 14.781 12.4596 16.1437 11.7297 17.5544L11.5018 17.9897L11.2944 17.5476C10.926 16.7435 10.4598 15.9879 9.90635 15.298C9.40701 14.6671 8.81082 14.1194 8.13997 13.6752C8.47957 12.5607 10.0978 13.1327 10.8226 13.7458H10.834Z" fill="#1DAB6E"/>
</svg>
