<svg width="22" height="28" viewBox="0 0 22 28" fill="none" xmlns="http://www.w3.org/2000/svg">
<path fill-rule="evenodd" clip-rule="evenodd" d="M10.9732 15.0948C13.9854 15.0948 16.4273 12.6529 16.4273 9.64064C16.4273 6.62841 13.9854 4.18652 10.9732 4.18652C7.96093 4.18652 5.51904 6.62841 5.51904 9.64064C5.51904 12.6529 7.96093 15.0948 10.9732 15.0948ZM11.7323 8.67622L11.0573 7.09561C11.0438 7.06375 11.0189 7.03621 10.9844 7.02163C10.9142 6.99193 10.8337 7.02433 10.804 7.09453L10.1285 8.67622L8.42095 8.82905C8.38531 8.83121 8.3502 8.84687 8.32482 8.87603C8.3129 8.88959 8.30378 8.90537 8.29798 8.92247C8.29218 8.93956 8.28981 8.95764 8.29101 8.97565C8.29222 8.99367 8.29697 9.01126 8.305 9.02744C8.31302 9.04361 8.32417 9.05804 8.33778 9.06989L9.63327 10.2007L9.24986 11.8774C9.24199 11.9119 9.24779 11.9481 9.26606 11.9784C9.30494 12.0437 9.38919 12.0648 9.45453 12.0259L10.9304 11.1435L12.4019 12.0232C12.4248 12.0382 12.4517 12.046 12.4791 12.0456C12.5065 12.0452 12.5332 12.0366 12.5557 12.0209C12.5781 12.0052 12.5954 11.9832 12.6052 11.9576C12.6151 11.932 12.6171 11.9041 12.6109 11.8774L12.228 10.2007L13.523 9.06989C13.5497 9.04644 13.5664 9.01354 13.5694 8.97809C13.571 8.96013 13.5691 8.94203 13.5637 8.92483C13.5583 8.90763 13.5496 8.89167 13.538 8.87786C13.5264 8.86406 13.5122 8.85269 13.4961 8.8444C13.4801 8.83611 13.4626 8.83108 13.4447 8.82959L11.7323 8.67622Z" fill="#1DAB6E"/>
<mask id="path-2-inside-1_358_11467" fill="white">
<path fill-rule="evenodd" clip-rule="evenodd" d="M11.0072 0.00111446C11.3714 -0.00880211 11.6969 0.0479427 11.9994 0.152067C12.2782 0.247927 12.5338 0.385106 12.7856 0.544873C13.0412 0.703539 13.2819 0.90793 13.5392 1.1283C13.7855 1.33875 14.0571 1.57014 14.3298 1.72605L14.3474 1.73652C14.4598 1.77949 14.7468 1.79106 15.0471 1.80152C16.0933 1.84009 17.2221 1.88196 18.0694 3.13971L18.1157 3.21408C18.7223 4.14624 18.7675 4.84426 18.811 5.5274L18.8132 5.57533C18.827 5.78578 18.8512 5.98356 18.9173 6.17914C18.99 6.38574 19.1179 6.62373 19.3437 6.92288C19.9558 7.73164 20.3337 8.44067 20.4891 9.12877C20.6731 9.94524 20.5524 10.6725 20.142 11.4041C19.8495 11.9241 19.4589 12.2591 19.1145 12.5538C18.99 12.6602 18.9283 12.6392 18.9035 12.6976L18.8782 12.7533C18.8193 12.9279 18.8154 13.1428 18.8126 13.3615C18.8044 13.9234 18.7945 14.5058 18.4 15.2842C18.1526 15.7712 17.8292 16.1828 17.4342 16.5188C17.0464 16.8527 16.593 17.1011 16.0784 17.267C15.5512 17.4367 15.1286 17.4069 14.7292 17.3783C14.5766 17.3678 14.4681 17.3413 14.4499 17.3491C14.1634 17.473 13.8593 17.7176 13.5734 17.9463L13.5073 17.9958C11.7228 19.4205 10.1428 19.3103 8.441 17.9463C8.15563 17.7176 7.85097 17.4736 7.56394 17.3535C7.53529 17.3408 7.3298 17.375 7.28517 17.3783C6.8852 17.4069 6.46265 17.4367 5.93597 17.267C5.42086 17.1011 4.968 16.8527 4.58015 16.5232C4.18734 16.1894 3.8645 15.7762 3.61439 15.2842C3.21883 14.5052 3.21001 13.9229 3.20175 13.3609C3.19844 13.118 3.19403 12.8805 3.11525 12.6976C3.08771 12.6332 3.02876 12.664 2.89984 12.5538C2.55607 12.2597 2.16436 11.9252 1.87182 11.4041C1.46139 10.6725 1.34129 9.94524 1.5253 9.12877C1.6801 8.44012 2.05804 7.73164 2.67011 6.92288C2.89599 6.62373 3.02435 6.38574 3.09542 6.17859L3.10919 6.14003C3.16594 5.95767 3.18797 5.77201 3.20009 5.57533L3.20505 5.50041C3.24968 4.80735 3.30257 4.09831 3.94439 3.14412C4.79115 1.88251 5.92054 1.84009 6.96729 1.80152C7.28627 1.78995 7.59038 1.77783 7.68569 1.72825C7.95785 1.57014 8.2289 1.33875 8.47626 1.1272L8.54348 1.07376C8.77541 0.877079 8.99413 0.693071 9.22496 0.547077C9.47068 0.387861 9.72685 0.250682 10.0144 0.152067C10.3169 0.0479427 10.6408 -0.00880211 11.0072 0.00111446ZM11.0077 0.968531C11.4661 0.948698 11.8275 1.10847 12.1922 1.3404C12.655 1.63404 13.1762 2.21361 13.8191 2.58163C14.7243 3.09839 16.4002 2.38495 17.2585 3.66033C17.7593 4.40352 17.7824 4.98695 17.8199 5.56266C17.8601 6.1841 17.9692 6.7554 18.6049 7.59666C19.6578 8.98884 19.877 9.91549 19.3349 10.8813C18.9647 11.5396 18.1862 11.9054 18.0061 12.3225C17.6227 13.2094 18.0469 13.8783 17.5218 14.9123C17.1577 15.6302 16.5952 16.1029 15.8459 16.3442C15.2146 16.5475 14.581 16.2533 14.0753 16.4659C13.1866 16.8389 12.531 17.7072 11.8242 17.9264C11.5515 18.0107 11.2793 18.0526 11.0077 18.0509C10.7361 18.0526 10.464 18.0107 10.1913 17.9264C9.4839 17.7072 8.82885 16.8389 7.94022 16.4659C7.43447 16.2533 6.80091 16.5475 6.16901 16.3442C5.42031 16.1029 4.85782 15.6302 4.49366 14.9123C3.96863 13.8783 4.39284 13.2094 4.0094 12.3225C3.82925 11.9054 3.05024 11.5396 2.68058 10.8813C2.13792 9.91549 2.35774 8.98884 3.41 7.59666C4.04576 6.7554 4.15484 6.1841 4.19506 5.56266C4.23252 4.98695 4.25621 4.40352 4.75645 3.66033C5.61478 2.38495 7.29123 3.09839 8.19585 2.58163C8.83932 2.21361 9.35994 1.63404 9.82327 1.3404C10.188 1.10847 10.5494 0.948698 11.0077 0.968531ZM10.9841 4.12586C14.0163 4.12586 16.4751 6.58462 16.4751 9.61689C16.4751 12.6497 14.0163 15.1079 10.9841 15.1079C7.95124 15.1079 5.49303 12.6497 5.49303 9.61689C5.49303 6.58462 7.95124 4.12586 10.9841 4.12586ZM10.9841 5.05306C13.5045 5.05306 15.5479 7.09642 15.5479 9.61689C15.5479 12.1379 13.5045 14.1807 10.9841 14.1807C8.46304 14.1807 6.42023 12.1379 6.42023 9.61689C6.42023 7.09642 8.46304 5.05306 10.9841 5.05306Z"/>
</mask>
<path fill-rule="evenodd" clip-rule="evenodd" d="M11.0072 0.00111446C11.3714 -0.00880211 11.6969 0.0479427 11.9994 0.152067C12.2782 0.247927 12.5338 0.385106 12.7856 0.544873C13.0412 0.703539 13.2819 0.90793 13.5392 1.1283C13.7855 1.33875 14.0571 1.57014 14.3298 1.72605L14.3474 1.73652C14.4598 1.77949 14.7468 1.79106 15.0471 1.80152C16.0933 1.84009 17.2221 1.88196 18.0694 3.13971L18.1157 3.21408C18.7223 4.14624 18.7675 4.84426 18.811 5.5274L18.8132 5.57533C18.827 5.78578 18.8512 5.98356 18.9173 6.17914C18.99 6.38574 19.1179 6.62373 19.3437 6.92288C19.9558 7.73164 20.3337 8.44067 20.4891 9.12877C20.6731 9.94524 20.5524 10.6725 20.142 11.4041C19.8495 11.9241 19.4589 12.2591 19.1145 12.5538C18.99 12.6602 18.9283 12.6392 18.9035 12.6976L18.8782 12.7533C18.8193 12.9279 18.8154 13.1428 18.8126 13.3615C18.8044 13.9234 18.7945 14.5058 18.4 15.2842C18.1526 15.7712 17.8292 16.1828 17.4342 16.5188C17.0464 16.8527 16.593 17.1011 16.0784 17.267C15.5512 17.4367 15.1286 17.4069 14.7292 17.3783C14.5766 17.3678 14.4681 17.3413 14.4499 17.3491C14.1634 17.473 13.8593 17.7176 13.5734 17.9463L13.5073 17.9958C11.7228 19.4205 10.1428 19.3103 8.441 17.9463C8.15563 17.7176 7.85097 17.4736 7.56394 17.3535C7.53529 17.3408 7.3298 17.375 7.28517 17.3783C6.8852 17.4069 6.46265 17.4367 5.93597 17.267C5.42086 17.1011 4.968 16.8527 4.58015 16.5232C4.18734 16.1894 3.8645 15.7762 3.61439 15.2842C3.21883 14.5052 3.21001 13.9229 3.20175 13.3609C3.19844 13.118 3.19403 12.8805 3.11525 12.6976C3.08771 12.6332 3.02876 12.664 2.89984 12.5538C2.55607 12.2597 2.16436 11.9252 1.87182 11.4041C1.46139 10.6725 1.34129 9.94524 1.5253 9.12877C1.6801 8.44012 2.05804 7.73164 2.67011 6.92288C2.89599 6.62373 3.02435 6.38574 3.09542 6.17859L3.10919 6.14003C3.16594 5.95767 3.18797 5.77201 3.20009 5.57533L3.20505 5.50041C3.24968 4.80735 3.30257 4.09831 3.94439 3.14412C4.79115 1.88251 5.92054 1.84009 6.96729 1.80152C7.28627 1.78995 7.59038 1.77783 7.68569 1.72825C7.95785 1.57014 8.2289 1.33875 8.47626 1.1272L8.54348 1.07376C8.77541 0.877079 8.99413 0.693071 9.22496 0.547077C9.47068 0.387861 9.72685 0.250682 10.0144 0.152067C10.3169 0.0479427 10.6408 -0.00880211 11.0072 0.00111446ZM11.0077 0.968531C11.4661 0.948698 11.8275 1.10847 12.1922 1.3404C12.655 1.63404 13.1762 2.21361 13.8191 2.58163C14.7243 3.09839 16.4002 2.38495 17.2585 3.66033C17.7593 4.40352 17.7824 4.98695 17.8199 5.56266C17.8601 6.1841 17.9692 6.7554 18.6049 7.59666C19.6578 8.98884 19.877 9.91549 19.3349 10.8813C18.9647 11.5396 18.1862 11.9054 18.0061 12.3225C17.6227 13.2094 18.0469 13.8783 17.5218 14.9123C17.1577 15.6302 16.5952 16.1029 15.8459 16.3442C15.2146 16.5475 14.581 16.2533 14.0753 16.4659C13.1866 16.8389 12.531 17.7072 11.8242 17.9264C11.5515 18.0107 11.2793 18.0526 11.0077 18.0509C10.7361 18.0526 10.464 18.0107 10.1913 17.9264C9.4839 17.7072 8.82885 16.8389 7.94022 16.4659C7.43447 16.2533 6.80091 16.5475 6.16901 16.3442C5.42031 16.1029 4.85782 15.6302 4.49366 14.9123C3.96863 13.8783 4.39284 13.2094 4.0094 12.3225C3.82925 11.9054 3.05024 11.5396 2.68058 10.8813C2.13792 9.91549 2.35774 8.98884 3.41 7.59666C4.04576 6.7554 4.15484 6.1841 4.19506 5.56266C4.23252 4.98695 4.25621 4.40352 4.75645 3.66033C5.61478 2.38495 7.29123 3.09839 8.19585 2.58163C8.83932 2.21361 9.35994 1.63404 9.82327 1.3404C10.188 1.10847 10.5494 0.948698 11.0077 0.968531ZM10.9841 4.12586C14.0163 4.12586 16.4751 6.58462 16.4751 9.61689C16.4751 12.6497 14.0163 15.1079 10.9841 15.1079C7.95124 15.1079 5.49303 12.6497 5.49303 9.61689C5.49303 6.58462 7.95124 4.12586 10.9841 4.12586ZM10.9841 5.05306C13.5045 5.05306 15.5479 7.09642 15.5479 9.61689C15.5479 12.1379 13.5045 14.1807 10.9841 14.1807C8.46304 14.1807 6.42023 12.1379 6.42023 9.61689C6.42023 7.09642 8.46304 5.05306 10.9841 5.05306Z" fill="#1F2323"/>
<path d="M11.0072 0.00111446L10.466 19.9938L11.0088 20.0085L11.5516 19.9937L11.0072 0.00111446ZM11.9994 0.152067L5.48914 19.0628L5.49572 19.0651L11.9994 0.152067ZM12.7856 0.544873L2.06958 17.4318L2.15368 17.4851L2.23831 17.5377L12.7856 0.544873ZM13.5392 1.1283L0.528757 16.318L0.537285 16.3253L0.545822 16.3326L13.5392 1.1283ZM14.3298 1.72605L24.5404 -15.4711L24.3991 -15.5551L24.2564 -15.6367L14.3298 1.72605ZM14.3474 1.73652L4.1368 18.9337L5.6073 19.8068L7.20468 20.4176L14.3474 1.73652ZM15.0471 1.80152L15.7838 -18.1849L15.7639 -18.1856L15.7439 -18.1863L15.0471 1.80152ZM18.0694 3.13971L35.0506 -7.4263L34.8591 -7.73404L34.6566 -8.03464L18.0694 3.13971ZM18.1157 3.21408L1.13458 13.7801L1.2417 13.9523L1.35229 14.1222L18.1157 3.21408ZM18.811 5.5274L38.7899 4.60863L38.7818 4.43212L38.7705 4.25579L18.811 5.5274ZM18.8132 5.57533L-1.16569 6.4941L-1.15678 6.68787L-1.14412 6.88144L18.8132 5.57533ZM18.9173 6.17914L-0.0294973 12.5837L0.0104853 12.702L0.0519415 12.8198L18.9173 6.17914ZM19.3437 6.92288L3.38261 18.9746L3.38931 18.9834L3.39602 18.9923L19.3437 6.92288ZM20.4891 9.12877L39.9997 4.73164L39.998 4.72403L20.4891 9.12877ZM20.142 11.4041L37.5735 21.2093L37.5791 21.1993L37.5847 21.1893L20.142 11.4041ZM19.1145 12.5538L32.1026 27.7627L32.1115 27.7551L32.1204 27.7476L19.1145 12.5538ZM18.9035 12.6976L37.1048 20.9871L37.2121 20.7514L37.3133 20.5131L18.9035 12.6976ZM18.8782 12.7533L0.676958 4.46384L0.254531 5.39137L-0.07142 6.35704L18.8782 12.7533ZM18.8126 13.3615L38.8105 13.6556L38.8108 13.6345L38.8111 13.6134L18.8126 13.3615ZM18.4 15.2842L36.2317 24.3413L36.236 24.3328L36.2403 24.3243L18.4 15.2842ZM17.4342 16.5188L4.47449 1.28581L4.43039 1.32332L4.38652 1.36108L17.4342 16.5188ZM16.0784 17.267L22.2057 36.3053L22.2131 36.3029L16.0784 17.267ZM14.7292 17.3783L16.16 -2.57049L16.1289 -2.57272L16.0978 -2.57486L14.7292 17.3783ZM14.4499 17.3491L6.6389 -1.06257L6.57318 -1.03469L6.50766 -1.00634L14.4499 17.3491ZM13.5734 17.9463L25.5734 33.9463L25.8214 33.7602L26.0636 33.5666L13.5734 17.9463ZM13.5073 17.9958L1.50731 1.99582L1.26519 2.1774L1.02868 2.36623L13.5073 17.9958ZM8.441 17.9463L20.9497 2.34072L20.9459 2.33771L8.441 17.9463ZM7.56394 17.3535L-0.526182 35.6442L-0.341903 35.7257L-0.15602 35.8035L7.56394 17.3535ZM7.28517 17.3783L8.71402 37.3272L8.73831 37.3254L8.76261 37.3236L7.28517 17.3783ZM5.93597 17.267L12.069 -1.76945L12.0647 -1.77084L5.93597 17.267ZM4.58015 16.5232L-8.3722 31.7625L-8.36779 31.7663L4.58015 16.5232ZM3.61439 15.2842L-14.2183 24.3393L-14.2139 24.3481L3.61439 15.2842ZM3.20175 13.3609L-16.7964 13.633L-16.7963 13.644L-16.7961 13.655L3.20175 13.3609ZM3.11525 12.6976L-15.2758 20.557L-15.2646 20.5832L-15.2533 20.6094L3.11525 12.6976ZM2.89984 12.5538L-10.104 27.7493L-10.0946 27.7573L2.89984 12.5538ZM1.87182 11.4041L-15.5709 21.1893L-15.5685 21.1935L1.87182 11.4041ZM1.5253 9.12877L21.0359 13.5259L21.0383 13.5153L1.5253 9.12877ZM2.67011 6.92288L18.6178 18.9923L18.6245 18.9834L18.6312 18.9746L2.67011 6.92288ZM3.09542 6.17859L-15.7394 -0.548099L-15.7815 -0.430186L-15.8222 -0.311755L3.09542 6.17859ZM3.10919 6.14003L21.944 12.8667L22.0831 12.4773L22.206 12.0825L3.10919 6.14003ZM3.20009 5.57533L-16.7563 4.25472L-16.7593 4.29994L-16.762 4.34517L3.20009 5.57533ZM3.20505 5.50041L23.1614 6.82102L23.1626 6.80326L23.1637 6.7855L3.20505 5.50041ZM3.94439 3.14412L20.5396 14.3066L20.5451 14.2983L20.5507 14.2899L3.94439 3.14412ZM6.96729 1.80152L6.24238 -18.1853L6.23095 -18.1849L6.96729 1.80152ZM7.68569 1.72825L16.916 19.4709L17.3295 19.2558L17.7326 19.0216L7.68569 1.72825ZM8.47626 1.1272L-3.97062 -14.5277L-4.2508 -14.3049L-4.52283 -14.0723L8.47626 1.1272ZM8.54348 1.07376L20.9904 16.7286L21.2376 16.532L21.4786 16.3277L8.54348 1.07376ZM9.22496 0.547077L19.9154 17.4501L20.0085 17.3913L20.1009 17.3314L9.22496 0.547077ZM10.0144 0.152067L16.5018 19.0707L16.5133 19.0667L16.5247 19.0628L10.0144 0.152067ZM11.0077 0.968531L10.1432 20.9498L11.0077 20.9872L11.8723 20.9498L11.0077 0.968531ZM12.1922 1.3404L1.45966 18.2168L1.46825 18.2222L1.47684 18.2277L12.1922 1.3404ZM13.8191 2.58163L3.8835 19.9392L3.89332 19.9448L3.90315 19.9504L13.8191 2.58163ZM17.2585 3.66033L0.66616 14.827L0.672544 14.8365L17.2585 3.66033ZM17.8199 5.56266L37.7781 4.27104L37.7777 4.26397L17.8199 5.56266ZM18.6049 7.59666L2.64894 19.6551L2.65279 19.6602L18.6049 7.59666ZM19.3349 10.8813L36.7676 20.6844L36.7714 20.6776L36.7752 20.6709L19.3349 10.8813ZM18.0061 12.3225L36.3641 20.2586L36.3663 20.2535L18.0061 12.3225ZM17.5218 14.9123L-0.311268 5.85803L-0.314392 5.86418L17.5218 14.9123ZM15.8459 16.3442L21.9758 35.3816L21.977 35.3813L15.8459 16.3442ZM14.0753 16.4659L21.8155 34.9075L21.8274 34.9024L14.0753 16.4659ZM11.8242 17.9264L17.7303 37.0345L17.7401 37.0315L17.7499 37.0284L11.8242 17.9264ZM11.0077 18.0509L11.1294 -1.94869L11.0077 -1.94944L10.886 -1.94869L11.0077 18.0509ZM10.1913 17.9264L4.26985 37.0297L4.2775 37.0321L4.28515 37.0345L10.1913 17.9264ZM7.94022 16.4659L0.188056 34.9024L0.200038 34.9075L7.94022 16.4659ZM6.16901 16.3442L0.0338619 35.3799L0.043988 35.3832L6.16901 16.3442ZM4.49366 14.9123L22.3299 5.86418L22.3268 5.85803L4.49366 14.9123ZM4.0094 12.3225L-14.3508 20.2535L-14.3486 20.2586L4.0094 12.3225ZM2.68058 10.8813L20.1195 1.08919L20.1166 1.08405L2.68058 10.8813ZM3.41 7.59666L19.3652 19.6562L19.366 19.6551L3.41 7.59666ZM4.19506 5.56266L-15.7627 4.26397L-15.7632 4.27104L4.19506 5.56266ZM4.75645 3.66033L21.3481 14.828L21.3488 14.827L4.75645 3.66033ZM8.19585 2.58163L18.1163 19.9478L18.125 19.9428L8.19585 2.58163ZM9.82327 1.3404L20.5296 18.2335L20.5427 18.2251L20.5558 18.2168L9.82327 1.3404ZM11.5516 19.9937C9.40702 20.0521 7.34659 19.7023 5.48914 19.0628L18.5097 -18.7587C16.0473 -19.6064 13.3357 -20.0697 10.4628 -19.9915L11.5516 19.9937ZM5.49572 19.0651C3.78404 18.4765 2.58518 17.759 2.06958 17.4318L23.5015 -16.342C22.4824 -16.9888 20.7723 -17.9806 18.5031 -18.7609L5.49572 19.0651ZM2.23831 17.5377C1.50803 17.0844 0.985803 16.683 0.742152 16.49C0.524495 16.3175 0.374079 16.1855 0.528757 16.318L26.5497 -14.0614C26.4851 -14.1168 25.1045 -15.3483 23.3328 -16.4479L2.23831 17.5377ZM0.545822 16.3326C0.626521 16.4016 1.08227 16.7948 1.61807 17.2131C2.15318 17.6308 3.12268 18.3566 4.40324 19.0888L24.2564 -15.6367C25.2642 -15.0605 25.9616 -14.5282 26.2311 -14.3178C26.5014 -14.1069 26.6982 -13.9345 26.5326 -14.076L0.545822 16.3326ZM4.11917 18.9232L4.1368 18.9337L24.5581 -15.4607L24.5404 -15.4711L4.11917 18.9232ZM7.20468 20.4176C9.22292 21.1892 10.9158 21.4531 11.4216 21.5309C12.1554 21.6438 12.7576 21.6963 13.0793 21.7212C13.6982 21.7693 14.2709 21.7866 14.3503 21.7894L15.7439 -18.1863C15.523 -18.194 15.8021 -18.1877 16.1744 -18.1588C16.3727 -18.1434 16.8633 -18.1025 17.5023 -18.0042C17.833 -17.9534 18.3235 -17.869 18.9146 -17.732C19.4688 -17.6035 20.3889 -17.3656 21.4902 -16.9445L7.20468 20.4176ZM14.3104 21.788C15.2965 21.8243 12.96 21.8686 10.3234 20.9921C8.76957 20.4755 7.04683 19.6532 5.36981 18.3926C3.69585 17.1344 2.41752 15.7023 1.48229 14.3141L34.6566 -8.03464C31.6871 -12.4425 27.5237 -15.4422 22.9423 -16.9653C19.2679 -18.1868 15.8439 -18.1827 15.7838 -18.1849L14.3104 21.788ZM1.0883 13.7057L1.13458 13.7801L35.0969 -7.35193L35.0506 -7.4263L1.0883 13.7057ZM1.35229 14.1222C0.456365 12.7454 -0.293183 11.0853 -0.74702 9.23955C-1.13599 7.65762 -1.17888 6.32293 -1.14855 6.79902L38.7705 4.25579C38.6677 2.64266 38.3717 -2.32673 34.8792 -7.69404L1.35229 14.1222ZM-1.1679 6.44617L-1.16569 6.4941L38.7921 4.65656L38.7899 4.60863L-1.1679 6.44617ZM-1.14412 6.88144C-1.09058 7.69952 -0.925606 9.93271 -0.0294973 12.5837L37.8641 -0.225415C38.628 2.03442 38.7445 3.87205 38.7705 4.26923L-1.14412 6.88144ZM0.0519415 12.8198C0.986475 15.4747 2.28668 17.5231 3.38261 18.9746L35.3048 -5.12879C35.949 -4.27565 36.9936 -2.7032 37.7827 -0.46147L0.0519415 12.8198ZM3.39602 18.9923C3.13822 18.6517 1.70206 16.7309 0.980163 13.5335L39.998 4.72403C38.9654 0.150474 36.7734 -3.18839 35.2914 -5.14653L3.39602 18.9923ZM0.978448 13.5259C0.568271 11.7059 0.414011 9.54871 0.776811 7.21978C1.13592 4.91451 1.91027 3.02527 2.69929 1.61881L37.5847 21.1893C40.2749 16.394 41.3306 10.6369 39.9997 4.73164L0.978448 13.5259ZM2.7105 1.59885C4.34898 -1.314 6.5369 -3.00637 6.10873 -2.63986L32.1204 27.7476C32.3808 27.5246 35.35 25.1623 37.5735 21.2093L2.7105 1.59885ZM6.12645 -2.65501C6.99205 -3.39422 7.92338 -4.05702 8.90723 -4.6346C9.86625 -5.1976 10.6723 -5.55323 10.7567 -5.59129C10.8848 -5.64897 10.4662 -5.46421 10.0316 -5.24777C9.54288 -5.00434 8.55227 -4.48952 7.40226 -3.67843C6.1825 -2.81815 4.79336 -1.63442 3.47724 -0.0365858C2.15444 1.56936 1.18485 3.25436 0.493798 4.88218L37.3133 20.5131C36.6284 22.1263 35.6662 23.7992 34.352 25.3947C33.0445 26.9821 31.6652 28.157 30.4567 29.0094C29.3179 29.8126 28.3398 30.3204 27.8651 30.5568C27.4446 30.7662 27.0415 30.9441 27.1866 30.8787C27.3051 30.8253 28.1515 30.4513 29.1578 29.8605C30.1891 29.2551 31.1748 28.5551 32.1026 27.7627L6.12645 -2.65501ZM0.7023 4.4082L0.676958 4.46384L37.0794 21.0427L37.1048 20.9871L0.7023 4.4082ZM-0.07142 6.35704C-0.816147 8.56338 -1.02602 10.4248 -1.1049 11.3601C-1.18301 12.2862 -1.18558 13.0939 -1.18577 13.1096L38.8111 13.6134C38.8136 13.4104 38.8144 14.0013 38.7536 14.7216C38.6921 15.4511 38.5136 17.1178 37.8278 19.1495L-0.07142 6.35704ZM-1.1852 13.0674C-1.19092 13.4566 -1.20489 12.306 -0.970252 10.915C-0.696548 9.29241 -0.178398 7.7007 0.559692 6.24411L36.2403 24.3243C38.7841 19.3042 38.7924 14.8846 38.8105 13.6556L-1.1852 13.0674ZM0.568293 6.22716C1.47609 4.43987 2.78002 2.7274 4.47449 1.28581L30.394 31.7518C32.8785 29.6381 34.8292 27.1026 36.2317 24.3413L0.568293 6.22716ZM4.38652 1.36108C6.17786 -0.180896 8.12272 -1.18207 9.94372 -1.76892L22.2131 36.3029C25.0632 35.3844 27.9149 33.8863 30.482 31.6766L4.38652 1.36108ZM9.95115 -1.77132C11.584 -2.29684 13.1226 -2.5214 14.4365 -2.58186C15.5567 -2.63342 16.4706 -2.54821 16.16 -2.57049L13.2984 37.327C13.8705 37.368 17.6956 37.7568 22.2057 36.3053L9.95115 -1.77132ZM16.0978 -2.57486C16.4699 -2.54933 16.7808 -2.51644 17.0069 -2.48931C17.2223 -2.46346 17.391 -2.43879 17.3794 -2.44046C17.3787 -2.44055 17.3782 -2.44062 17.3762 -2.44091C17.3746 -2.44114 17.3719 -2.44153 17.3688 -2.44197C17.3629 -2.44282 17.3524 -2.44433 17.3399 -2.44611C17.3167 -2.44941 17.2707 -2.45593 17.2138 -2.4637C17.1277 -2.47547 16.8647 -2.51123 16.5304 -2.5457C16.2752 -2.572 15.4895 -2.65123 14.4823 -2.65232C13.9657 -2.65287 13.0798 -2.63497 11.9887 -2.49943C11.0372 -2.38123 9.01186 -2.06928 6.6389 -1.06257L22.2609 35.7607C19.8902 36.7664 17.8678 37.0777 16.92 37.1954C15.8326 37.3305 14.951 37.3482 14.4394 37.3477C13.4423 37.3466 12.6691 37.2682 12.4291 37.2435C11.9464 37.1937 11.4729 37.1217 11.6989 37.1541C11.7979 37.1684 12.4906 37.2717 13.3606 37.3314L16.0978 -2.57486ZM6.50766 -1.00634C4.50502 -0.139816 3.04892 0.861531 2.40033 1.32399C1.71796 1.81054 1.11998 2.2965 1.08315 2.32595L26.0636 33.5666C26.3127 33.3674 26.0098 33.6167 25.6225 33.8928C25.3904 34.0584 25.0122 34.3185 24.5184 34.6147C24.0318 34.9065 23.3114 35.3067 22.3921 35.7045L6.50766 -1.00634ZM1.57342 1.94624L1.50731 1.99582L25.5072 33.9959L25.5734 33.9463L1.57342 1.94624ZM1.02868 2.36623C2.56206 1.14199 6.17548 -1.10355 11.4238 -0.977387C16.4865 -0.855687 19.7856 1.40764 20.9497 2.34072L-4.06768 33.5518C-1.20179 35.849 3.73818 38.8494 10.4625 39.0111C17.3724 39.1772 22.6681 36.2744 25.9859 33.6255L1.02868 2.36623ZM20.9459 2.33771C20.8913 2.29398 20.2774 1.79429 19.5615 1.28734C18.8866 0.809392 17.3723 -0.222671 15.2839 -1.09652L-0.15602 35.8035C-1.12044 35.3999 -1.87669 34.9879 -2.38891 34.6853C-2.90879 34.3783 -3.30771 34.1064 -3.55537 33.931C-3.97581 33.6333 -4.29472 33.3699 -4.06392 33.5548L20.9459 2.33771ZM15.6541 -0.937238C13.2254 -2.01144 11.1566 -2.33624 10.4081 -2.44405C9.43146 -2.58474 8.63972 -2.62436 8.18969 -2.63886C7.29028 -2.66785 6.58188 -2.62885 6.2897 -2.61092C5.65018 -2.57168 5.14014 -2.50895 5.01375 -2.49357C4.83687 -2.47204 4.65303 -2.44704 4.6972 -2.45294C4.69819 -2.45307 4.71448 -2.45525 4.73748 -2.45825C4.75954 -2.46113 4.80452 -2.46696 4.86269 -2.47412C4.87563 -2.47572 5.28692 -2.52852 5.80774 -2.56709L8.76261 37.3236C9.29458 37.2842 9.72205 37.2296 9.75489 37.2256C9.87535 37.2107 9.97652 37.1971 9.98986 37.1954C10.086 37.1825 9.96369 37.1992 9.84734 37.2133C9.78149 37.2213 9.33098 37.2777 8.73944 37.314C8.47125 37.3304 7.78396 37.3688 6.90144 37.3404C6.45986 37.3262 5.67551 37.2871 4.70502 37.1473C3.96278 37.0404 1.89887 36.7168 -0.526182 35.6442L15.6541 -0.937238ZM5.85633 -2.57063C5.54377 -2.54825 6.45773 -2.63339 7.5775 -2.58186C8.89176 -2.52138 10.4328 -2.29661 12.069 -1.76945L-0.197106 36.3034C4.3168 37.7577 8.14737 37.3677 8.71402 37.3272L5.85633 -2.57063ZM12.0647 -1.77084C13.8908 -1.18298 15.7906 -0.19569 17.5281 1.28017L-8.36779 31.7663C-5.85462 33.9011 -3.04909 35.3853 -0.192783 36.3048L12.0647 -1.77084ZM17.5325 1.28392C19.2796 2.76885 20.567 4.49801 21.4426 6.22035L-14.2139 24.3481C-12.838 27.0544 -10.9049 29.6099 -8.3722 31.7625L17.5325 1.28392ZM21.4471 6.22913C22.1908 7.69366 22.7116 9.29374 22.9858 10.9237C23.22 12.3162 23.2056 13.4737 23.1996 13.0669L-16.7961 13.655C-16.7784 14.8582 -16.7771 19.3002 -14.2183 24.3393L21.4471 6.22913ZM23.1999 13.0889C23.1993 13.0439 23.1962 12.7774 23.1853 12.4695C23.1739 12.1488 23.1493 11.6288 23.0857 10.9986C22.9722 9.87406 22.6574 7.51049 21.4838 4.78588L-15.2533 20.6094C-16.3481 18.0677 -16.6214 15.9143 -16.7121 15.0149C-16.8024 14.1202 -16.7999 13.3746 -16.7964 13.633L23.1999 13.0889ZM21.5063 4.83823C20.8699 3.349 19.9503 1.69656 18.628 0.068462C17.2907 -1.57804 15.8355 -2.83765 14.4639 -3.78617C13.1755 -4.6772 12.056 -5.22538 11.4833 -5.491C10.9858 -5.72171 10.5005 -5.91656 10.6587 -5.85144C10.7847 -5.79958 11.7161 -5.42421 12.8229 -4.7988C13.946 -4.1642 14.9718 -3.43806 15.8943 -2.64962L-10.0946 27.7573C-9.10763 28.6008 -8.02614 29.3644 -6.85488 30.0263C-5.69988 30.6789 -4.72786 31.0712 -4.56758 31.1372C-4.39222 31.2094 -4.86194 31.0209 -5.3453 30.7967C-5.90392 30.5377 -7.01069 29.9962 -8.28772 29.1131C-9.64789 28.1725 -11.0929 26.9219 -12.4212 25.2865C-13.7346 23.6695 -14.6462 22.0302 -15.2758 20.557L21.5063 4.83823ZM15.9036 -2.64159C15.4484 -3.03118 17.6639 -1.32181 19.3122 1.61461L-15.5685 21.1935C-13.3352 25.1723 -10.3363 27.5505 -10.1039 27.7493L15.9036 -2.64159ZM19.3145 1.61881C20.1057 3.02913 20.88 4.92076 21.2384 7.22685C21.6003 9.55575 21.4451 11.7106 21.0359 13.5259L-17.9853 4.73164C-19.314 10.6272 -18.2662 16.3848 -15.5709 21.1893L19.3145 1.61881ZM21.0383 13.5153C20.3162 16.7277 18.8716 18.657 18.6178 18.9923L-13.2776 -5.14653C-14.7555 -3.19371 -16.956 0.1525 -17.9877 4.74224L21.0383 13.5153ZM18.6312 18.9746C19.6981 17.5616 21.0571 15.4552 22.013 12.6689L-15.8222 -0.311755C-15.0084 -2.68378 -13.9061 -4.31416 -13.291 -5.12879L18.6312 18.9746ZM21.9303 12.9053L21.944 12.8667L-15.7257 -0.586664L-15.7394 -0.548099L21.9303 12.9053ZM22.206 12.0825C22.9617 9.65384 23.1119 7.62293 23.1622 6.80549L-16.762 4.34517C-16.7359 3.92109 -16.6298 2.2615 -15.9876 0.197525L22.206 12.0825ZM23.1564 6.89595L23.1614 6.82102L-16.7513 4.17979L-16.7563 4.25472L23.1564 6.89595ZM23.1637 6.7855C23.1892 6.38932 23.1428 7.76769 22.7145 9.4247C22.2245 11.3208 21.4342 12.9766 20.5396 14.3066L-12.6508 -8.01834C-16.2661 -2.64344 -16.6337 2.35292 -16.7536 4.21531L23.1637 6.7855ZM20.5507 14.2899C19.619 15.6782 18.3432 17.1131 16.6694 18.3754C14.9922 19.6404 13.2672 20.4669 11.7092 20.9866C9.06407 21.8689 6.72066 21.8242 7.70363 21.788L6.23095 -18.1849C6.16718 -18.1826 2.7357 -18.1868 -0.947484 -16.9582C-5.5391 -15.4267 -9.7003 -12.4143 -12.662 -8.00171L20.5507 14.2899ZM7.6922 21.7884C7.74121 21.7866 8.38956 21.767 9.07483 21.7098C9.42199 21.6808 10.1576 21.6131 11.0594 21.4537C11.4911 21.3774 14.0508 20.9615 16.916 19.4709L-1.54459 -16.0144C0.0857987 -16.8626 1.48097 -17.2976 2.20597 -17.5023C3.0145 -17.7306 3.68108 -17.8622 4.09682 -17.9357C4.90481 -18.0785 5.52656 -18.1332 5.74591 -18.1515C6.17555 -18.1874 6.51236 -18.1951 6.24238 -18.1853L7.6922 21.7884ZM17.7326 19.0216C18.9699 18.3028 19.9094 17.5954 20.4312 17.1863C20.9516 16.7783 21.3973 16.3934 21.4754 16.3267L-4.52283 -14.0723C-4.6921 -13.9275 -4.50563 -14.0908 -4.25064 -14.2908C-3.99429 -14.4918 -3.32636 -15.0044 -2.36124 -15.5651L17.7326 19.0216ZM20.9231 16.7821L20.9904 16.7286L-3.90341 -14.5811L-3.97062 -14.5277L20.9231 16.7821ZM21.4786 16.3277C21.6183 16.2093 21.4783 16.3306 21.2775 16.4891C21.0532 16.6661 20.577 17.0317 19.9154 17.4501L-1.46552 -16.356C-3.07043 -15.3409 -4.33255 -14.2303 -4.3916 -14.1802L21.4786 16.3277ZM20.1009 17.3314C19.4155 17.7756 18.1856 18.4933 16.5018 19.0707L3.52702 -18.7665C1.26806 -17.9919 -0.474107 -16.9998 -1.65098 -16.2373L20.1009 17.3314ZM16.5247 19.0628C14.6695 19.7015 12.6086 20.0518 10.466 19.9938L11.5483 -19.9916C8.67308 -20.0694 5.96427 -19.6056 3.50418 -18.7587L16.5247 19.0628ZM11.8723 20.9498C9.41781 21.056 7.12657 20.6592 5.13087 19.9729C3.28286 19.3373 1.99039 18.5543 1.45966 18.2168L22.9248 -15.536C20.9267 -16.8067 16.4222 -19.2845 10.1432 -19.0128L11.8723 20.9498ZM1.47684 18.2277C0.601105 17.672 0.00726759 17.1844 -0.108829 17.0894C-0.193815 17.02 -0.243649 16.9772 -0.211622 17.0044C-0.195954 17.0177 -0.180871 17.0306 -0.13983 17.0656C-0.10546 17.0949 -0.0524845 17.14 0.0059309 17.1896C0.222421 17.3731 0.702071 17.7778 1.30315 18.2319C1.91477 18.6939 2.78855 19.3124 3.8835 19.9392L23.7547 -14.7759C24.5282 -14.3332 25.0957 -13.9251 25.4143 -13.6844C25.7224 -13.4517 25.9223 -13.2792 25.8703 -13.3233C25.8616 -13.3307 25.8481 -13.3421 25.8167 -13.3689C25.792 -13.39 25.742 -13.4326 25.6933 -13.4741C25.5964 -13.5564 25.4203 -13.7056 25.2113 -13.8765C25.0008 -14.0486 24.7006 -14.2891 24.3381 -14.5599C23.9773 -14.8294 23.493 -15.1754 22.9076 -15.5469L1.47684 18.2277ZM3.90315 19.9504C6.0265 21.1626 8.0069 21.8049 9.49015 22.1636C10.9485 22.5163 12.1724 22.6521 12.8973 22.7147C13.6004 22.7754 14.2168 22.7955 14.3366 22.8C14.6091 22.8101 14.3869 22.8039 14.1319 22.7857C13.6709 22.7528 11.492 22.602 8.85395 21.5128C7.44687 20.9319 5.91819 20.0923 4.42453 18.9C2.92165 17.7004 1.6654 16.3117 0.666163 14.827L33.8508 -7.50634C31.263 -11.3515 27.7559 -13.9583 24.1186 -15.46C20.8966 -16.7902 18.0813 -17.0341 16.9808 -17.1127C16.4061 -17.1537 15.8635 -17.1709 15.821 -17.1725C15.6259 -17.1797 15.9328 -17.172 16.338 -17.137C16.8915 -17.0893 20.1321 -16.8441 23.735 -14.7871L3.90315 19.9504ZM0.672544 14.8365C-0.45335 13.1656 -1.2851 11.2551 -1.75603 9.25244C-2.13655 7.63426 -2.18326 6.16442 -2.13791 6.86135L37.7777 4.26397C37.7177 3.34211 37.56 -2.00174 33.8444 -7.51582L0.672544 14.8365ZM-2.13837 6.85428C-2.06501 7.98784 -1.85957 10.2747 -0.927837 12.9895C0.000706315 15.6951 1.32292 17.9005 2.64894 19.6551L34.5609 -4.46178C35.2512 -3.54841 36.201 -2.04929 36.906 0.00491279C37.6142 2.06841 37.745 3.75892 37.7781 4.27104L-2.13837 6.85428ZM2.65279 19.6602C2.56077 19.5385 0.870301 17.4025 0.0575224 13.7966C-0.397583 11.7776 -0.545554 9.45385 -0.149723 6.98732C0.240331 4.55678 1.06433 2.57082 1.89464 1.09162L36.7752 20.6709C39.2634 16.2381 40.3719 10.739 39.0785 5.00108C38.0284 0.342424 35.7019 -2.95301 34.5571 -4.46688L2.65279 19.6602ZM1.90223 1.0781C2.87501 -0.651752 3.91997 -1.84831 4.55791 -2.51387C5.16169 -3.14379 5.6716 -3.56842 5.58013 -3.48998C5.57579 -3.48626 5.56949 -3.48087 5.55244 -3.46629C5.53874 -3.45458 5.51275 -3.43236 5.4858 -3.40926C5.43261 -3.36367 5.33852 -3.28284 5.22842 -3.18638C5.02551 -3.00861 4.62343 -2.65197 4.15495 -2.1874C3.69267 -1.72899 2.98434 -0.988 2.22694 2.26222e-05C1.47172 0.985204 0.482565 2.45443 -0.354152 4.39142L36.3663 20.2535C35.9647 21.1833 35.5329 21.9834 35.1263 22.6508C34.7203 23.3171 34.3222 23.8794 33.9725 24.3356C33.6226 24.792 33.2977 25.1728 33.0262 25.4743C32.7542 25.7764 32.512 26.0252 32.3204 26.2152C32.1283 26.4056 31.9652 26.5586 31.8478 26.6664C31.7304 26.7743 31.6382 26.8557 31.5878 26.8999C31.5386 26.943 31.5071 26.9699 31.5178 26.9607C31.5228 26.9564 31.5291 26.9511 31.5479 26.935C31.5633 26.9218 31.5897 26.8992 31.6183 26.8747C31.7245 26.7836 31.9747 26.5687 32.2688 26.3008C32.5701 26.0263 32.978 25.6416 33.435 25.1649C33.8934 24.6866 34.4356 24.0801 35.0022 23.3472C35.5707 22.6117 36.1822 21.7254 36.7676 20.6844L1.90223 1.0781ZM-0.351947 4.38631C-0.855206 5.55046 -1.23511 6.70382 -1.51375 7.82588C-1.79031 8.93958 -1.94652 9.93968 -2.03801 10.7729C-2.1272 11.5851 -2.15571 12.2527 -2.16775 12.6443C-2.17378 12.8404 -2.17659 13.0046 -2.17793 13.0877C-2.17854 13.1255 -2.17924 13.1728 -2.17939 13.1825C-2.17969 13.2023 -2.17969 13.2016 -2.17955 13.1937C-2.17928 13.179 -2.17381 12.0675 -1.91708 10.6447C-1.78287 9.90091 -1.58751 9.09625 -1.30868 8.25412C-1.03013 7.41284 -0.693938 6.61172 -0.311267 5.85803L35.3549 23.9667C36.42 21.8689 37.0832 19.765 37.4472 17.7476C37.7841 15.8809 37.8059 14.3528 37.8137 13.9307C37.8147 13.872 37.8155 13.8205 37.816 13.7896C37.8166 13.7487 37.8167 13.7454 37.8169 13.7327C37.8172 13.7149 37.8163 13.7784 37.8134 13.8737C37.8075 14.064 37.7898 14.5303 37.723 15.1389C37.5749 16.4873 37.2152 18.2898 36.3641 20.2586L-0.351947 4.38631ZM-0.314392 5.86418C0.60632 4.04923 1.97216 2.18748 3.86781 0.574567C5.76111 -1.03635 7.80524 -2.07788 9.71487 -2.69289L21.977 35.3813C27.7637 33.5176 32.5614 29.4734 35.3581 23.9605L-0.314392 5.86418ZM9.71607 -2.69327C11.8505 -3.38054 13.6736 -3.54146 14.8194 -3.57324C15.3841 -3.58891 15.8275 -3.57374 16.0707 -3.56244C16.2862 -3.55241 16.4596 -3.53894 16.3443 -3.54721C16.3172 -3.54915 15.9749 -3.57492 15.5903 -3.59222C15.1795 -3.61071 14.5096 -3.63086 13.6935 -3.59888C12.07 -3.53527 9.37098 -3.25212 6.32311 -1.97055L21.8274 34.9024C20.4317 35.4893 19.1257 35.8436 17.9989 36.0574C16.8882 36.2682 15.9443 36.3436 15.2596 36.3704C14.913 36.384 14.6128 36.3858 14.3719 36.3833C14.1315 36.3808 13.9331 36.3737 13.7923 36.3673C13.6528 36.3611 13.548 36.3545 13.5018 36.3515C13.4623 36.3489 13.4341 36.3468 13.4827 36.3503C13.5097 36.3522 13.6106 36.3595 13.7222 36.3668C13.841 36.3746 14.0111 36.385 14.2125 36.3944C14.6093 36.4128 15.2079 36.4314 15.9286 36.4114C17.3866 36.3709 19.5257 36.1706 21.9758 35.3816L9.71607 -2.69327ZM6.33509 -1.97558C5.35501 -1.56423 4.50731 -1.12688 3.80026 -0.721267C3.09546 -0.31694 2.50076 0.0730403 2.03219 0.398772C1.56609 0.722784 1.18213 1.0132 0.916619 1.21873C0.666338 1.41247 0.440295 1.59427 0.37648 1.6454C0.263405 1.73599 0.324414 1.68627 0.415956 1.61583C0.519089 1.53646 0.783038 1.33568 1.1527 1.08593C1.52257 0.836042 2.10045 0.467309 2.85173 0.0761763C3.60644 -0.316738 4.63178 -0.782612 5.89857 -1.17558L17.7499 37.0284C20.5429 36.162 22.5536 34.9007 23.5456 34.2304C24.09 33.8626 24.5294 33.5324 24.8096 33.3168C25.0782 33.1101 25.3181 32.9172 25.3867 32.8622C25.6653 32.639 25.3208 32.9249 24.8639 33.2425C24.351 33.5991 23.3013 34.2838 21.8155 34.9075L6.33509 -1.97558ZM5.91808 -1.18162C7.47132 -1.66172 9.2302 -1.96025 11.1294 -1.94869L10.886 38.0506C13.3285 38.0654 15.6317 37.6832 17.7303 37.0345L5.91808 -1.18162ZM10.886 -1.94869C12.7853 -1.96025 14.5442 -1.66171 16.0974 -1.18162L4.28515 37.0345C6.3838 37.6832 8.68699 38.0654 11.1294 38.0506L10.886 -1.94869ZM16.1127 -1.17689C17.3794 -0.78424 18.4051 -0.318568 19.1605 0.0745448C19.9124 0.465849 20.4909 0.834865 20.8614 1.08517C21.2317 1.3353 21.4962 1.53647 21.5998 1.61618C21.6918 1.68699 21.753 1.73694 21.6402 1.64655C21.5768 1.59568 21.3507 1.41382 21.1006 1.22015C20.8351 1.01463 20.4511 0.724097 19.9849 0.399937C19.5162 0.074049 18.9213 -0.316145 18.2162 -0.720692C17.5089 -1.12654 16.6608 -1.56408 15.6804 -1.97558L0.200038 34.9075C-1.28663 34.2835 -2.33688 33.5983 -2.85017 33.2414C-3.30724 32.9236 -3.65211 32.6373 -3.37281 32.8611C-3.30398 32.9162 -3.0639 33.1093 -2.7948 33.3164C-2.51414 33.5324 -2.07431 33.863 -1.52924 34.2312C-0.535349 34.9026 1.47607 36.1638 4.26985 37.0297L16.1127 -1.17689ZM15.6924 -1.97055C12.6445 -3.25214 9.94543 -3.53527 8.32198 -3.59888C7.50583 -3.63086 6.83598 -3.6107 6.42529 -3.59223C6.04075 -3.57493 5.69845 -3.54917 5.67145 -3.54723C5.5562 -3.53897 5.72956 -3.55244 5.945 -3.56245C6.18809 -3.57375 6.63129 -3.5889 7.19555 -3.57325C8.34072 -3.5415 10.1619 -3.38076 12.294 -2.69483L0.043988 35.3832C2.49207 36.1708 4.62941 36.371 6.0869 36.4114C6.80732 36.4314 7.40572 36.4128 7.80255 36.3944C8.00393 36.385 8.17404 36.3746 8.29277 36.3669C8.40443 36.3596 8.50531 36.3523 8.53239 36.3503C8.58104 36.3468 8.55283 36.3489 8.51346 36.3515C8.46721 36.3545 8.36246 36.3611 8.22303 36.3674C8.08231 36.3737 7.88388 36.3808 7.64358 36.3833C7.40271 36.3858 7.10253 36.384 6.75596 36.3705C6.07128 36.3436 5.12735 36.2682 4.01665 36.0574C2.88982 35.8436 1.58376 35.4893 0.188057 34.9024L15.6924 -1.97055ZM12.3042 -2.69157C14.2141 -2.07599 16.2574 -1.0341 18.1495 0.576144C20.0438 2.18837 21.4092 4.04933 22.3299 5.86418L-13.3426 23.9605C-10.5468 29.4718 -5.75089 33.5155 0.0338628 35.3799L12.3042 -2.69157ZM22.3268 5.85803C22.7094 6.61172 23.0456 7.41284 23.3242 8.25412C23.603 9.09625 23.7984 9.90091 23.9326 10.6447C24.1893 12.0675 24.1948 13.179 24.195 13.1937C24.1952 13.2016 24.1952 13.2023 24.1949 13.1825C24.1947 13.1728 24.194 13.1255 24.1934 13.0877C24.1921 13.0046 24.1893 12.8404 24.1832 12.6443C24.1712 12.2527 24.1427 11.5851 24.0535 10.7729C23.962 9.93968 23.8058 8.93958 23.5292 7.82588C23.2506 6.70382 22.8707 5.55046 22.3674 4.38631L-14.3486 20.2586C-15.1997 18.2898 -15.5595 16.4873 -15.7075 15.1389C-15.7743 14.5303 -15.792 14.064 -15.7979 13.8737C-15.8008 13.7784 -15.8017 13.7149 -15.8014 13.7327C-15.8012 13.7454 -15.8011 13.7486 -15.8005 13.7896C-15.8001 13.8205 -15.7993 13.872 -15.7982 13.9307C-15.7904 14.3528 -15.7686 15.8809 -15.4317 17.7476C-15.0677 19.765 -14.4045 21.8689 -13.3394 23.9667L22.3268 5.85803ZM22.3696 4.39142C21.5322 2.45283 20.5421 0.982686 19.7864 -0.00270871C19.0286 -0.990985 18.3198 -1.73205 17.8575 -2.19031C17.389 -2.65475 16.9869 -3.01126 16.7842 -3.1888C16.6741 -3.28515 16.5801 -3.36589 16.5271 -3.41134C16.5002 -3.43437 16.4742 -3.45656 16.4606 -3.46818C16.4437 -3.48269 16.4374 -3.48803 16.4332 -3.49167C16.3423 -3.56959 16.8535 -3.14399 17.4587 -2.51241C18.0981 -1.84525 19.1454 -0.645526 20.1195 1.08919L-14.7583 20.6733C-14.1724 21.7168 -13.5601 22.6051 -12.9908 23.3421C-12.4234 24.0766 -11.8803 24.6843 -11.4211 25.1635C-10.9635 25.641 -10.5548 26.0263 -10.253 26.3013C-9.95833 26.5697 -9.70764 26.785 -9.60108 26.8764C-9.57239 26.901 -9.54588 26.9236 -9.53034 26.9369C-9.51144 26.9531 -9.50515 26.9584 -9.50007 26.9628C-9.48922 26.9721 -9.52058 26.9453 -9.56965 26.9023C-9.61997 26.8583 -9.71212 26.7769 -9.8295 26.6691C-9.94686 26.5614 -10.11 26.4085 -10.302 26.2181C-10.4937 26.0282 -10.7359 25.7794 -11.0081 25.4773C-11.2797 25.1758 -11.6048 24.7949 -11.955 24.3383C-12.3049 23.882 -12.7033 23.3194 -13.1097 22.6527C-13.5167 21.9848 -13.9488 21.1842 -14.3508 20.2535L22.3696 4.39142ZM20.1166 1.08405C20.9485 2.56462 21.7738 4.55218 22.1645 6.9846C22.561 9.45289 22.4128 11.7776 21.9577 13.7966C21.1452 17.4014 19.4554 19.5368 19.3652 19.6562L-12.5452 -4.46286C-13.6877 -2.95126 -16.0135 0.343548 -17.0633 5.00108C-18.3569 10.7398 -17.2482 16.242 -14.7554 20.6784L20.1166 1.08405ZM19.366 19.6551C20.692 17.9005 22.0142 15.6951 22.9428 12.9895C23.8745 10.2747 24.0799 7.98784 24.1533 6.85428L-15.7632 4.27104C-15.73 3.75892 -15.5993 2.06841 -14.8911 0.00491279C-14.1861 -2.04929 -13.2363 -3.54841 -12.546 -4.46178L19.366 19.6551ZM24.1528 6.86135C24.1976 6.17375 24.151 7.6389 23.7702 9.25653C23.2998 11.2549 22.4702 13.1609 21.3481 14.828L-11.8352 -7.50736C-15.5409 -2.0018 -15.7019 3.32845 -15.7627 4.26397L24.1528 6.86135ZM21.3488 14.827C20.3492 16.3122 19.0927 17.701 17.5896 18.9006C16.0958 20.0929 14.567 20.9324 13.1601 21.5132C10.5224 22.602 8.3439 22.7528 7.88312 22.7857C7.62819 22.8039 7.40608 22.8101 7.67855 22.8C7.79839 22.7955 8.41485 22.7754 9.118 22.7147C9.84299 22.6521 11.0673 22.5162 12.5262 22.1633C14.01 21.8043 15.9917 21.1615 18.1163 19.9478L-1.72466 -14.7845C1.88074 -16.8441 5.12417 -17.0893 5.67702 -17.137C6.08238 -17.172 6.38934 -17.1797 6.19421 -17.1725C6.15171 -17.1709 5.60913 -17.1537 5.03446 -17.1127C3.9342 -17.0342 1.11908 -16.7903 -2.10261 -15.4604C-5.73965 -13.959 -9.24747 -11.3524 -11.8359 -7.50634L21.3488 14.827ZM18.125 19.9428C19.222 19.3155 20.0973 18.6962 20.7102 18.2332C21.3124 17.7784 21.7929 17.373 22.0093 17.1896C22.0677 17.1401 22.1207 17.0949 22.1549 17.0657C22.1959 17.0308 22.2109 17.0179 22.2263 17.0048C22.258 16.9779 22.2077 17.0211 22.122 17.0912C22.0044 17.1873 21.4084 17.6765 20.5296 18.2335L-0.883033 -15.5526C-1.47007 -15.1806 -1.95572 -14.8339 -2.31781 -14.5636C-2.6815 -14.2921 -2.9827 -14.0509 -3.19396 -13.8782C-3.40368 -13.7068 -3.58037 -13.5571 -3.67755 -13.4745C-3.72652 -13.4329 -3.77658 -13.3902 -3.8014 -13.369C-3.83289 -13.3422 -3.84633 -13.3307 -3.85506 -13.3233C-3.90715 -13.2792 -3.70647 -13.4523 -3.39735 -13.6858C-3.07751 -13.9274 -2.50855 -14.3362 -1.73334 -14.7796L18.125 19.9428ZM20.5558 18.2168C20.0251 18.5543 18.7326 19.3373 16.8846 19.9729C14.8889 20.6592 12.5977 21.056 10.1432 20.9498L11.8723 -19.0128C5.59324 -19.2845 1.08882 -16.8067 -0.909296 -15.536L20.5558 18.2168ZM10.9841 24.1259C2.97062 24.1259 -3.52492 17.6303 -3.52492 9.61689H36.4751C36.4751 -4.46107 25.062 -15.8741 10.9841 -15.8741V24.1259ZM-3.52492 9.61689C-3.52492 1.60272 2.97192 -4.89208 10.9841 -4.89208V35.1079C25.0607 35.1079 36.4751 23.6967 36.4751 9.61689H-3.52492ZM10.9841 -4.89208C18.9969 -4.89208 25.493 1.60402 25.493 9.61689H-14.507C-14.507 23.6954 -3.09446 35.1079 10.9841 35.1079V-4.89208ZM25.493 9.61689C25.493 17.629 18.9982 24.1259 10.9841 24.1259V-15.8741C-3.09576 -15.8741 -14.507 -4.45977 -14.507 9.61689H25.493ZM10.9841 25.0531C2.45881 25.0531 -4.45212 18.1421 -4.45212 9.61689H35.5479C35.5479 -3.94926 24.5502 -14.9469 10.9841 -14.9469V25.0531ZM-4.45212 9.61689C-4.45212 1.09065 2.46038 -5.81928 10.9841 -5.81928V34.1807C24.5487 34.1807 35.5479 23.1852 35.5479 9.61689H-4.45212ZM10.9841 -5.81928C19.5087 -5.81928 26.4202 1.09221 26.4202 9.61689H-13.5798C-13.5798 23.1836 -2.58266 34.1807 10.9841 34.1807V-5.81928ZM26.4202 9.61689C26.4202 18.1405 19.5103 25.0531 10.9841 25.0531V-14.9469C-2.58422 -14.9469 -13.5798 -3.9477 -13.5798 9.61689H26.4202Z" fill="#1F2323" mask="url(#path-2-inside-1_358_11467)"/>
<path fill-rule="evenodd" clip-rule="evenodd" d="M18.1467 17.4092L21.0544 24.2081L17.409 24.1657L14.4131 26.5963L11.7852 20.1919C12.5449 20.0073 13.2969 19.6233 14.0561 19.0278L14.1475 18.9606L14.1459 18.9584L14.1954 18.9198L14.1932 18.9165C14.2897 18.8394 14.3888 18.7606 14.477 18.6934C14.6604 18.7049 14.8588 18.7121 15.1061 18.7005C15.4471 18.6851 15.813 18.6311 16.2173 18.5011C16.5732 18.3865 16.9032 18.246 17.2062 18.0785C17.5191 17.9064 17.813 17.702 18.0833 17.4687L18.0811 17.4659L18.1467 17.4092ZM10.6525 20.3213L7.58715 28.0001L4.59124 25.57L0.945801 25.6118L4.12572 18.0482L4.18356 18.0808C4.48657 18.2466 4.81657 18.3876 5.17026 18.5011C5.57409 18.6311 5.9399 18.6851 6.28092 18.7005C6.52553 18.7121 6.72276 18.7049 6.90511 18.6939C6.99491 18.7617 7.09848 18.8443 7.19765 18.9242L7.19985 18.9259C8.3061 19.8117 9.41676 20.2921 10.5952 20.3208L10.6525 20.3213Z" fill="#1F2323"/>
</svg>
