<svg width="30" height="28" viewBox="0 0 30 28" fill="none" xmlns="http://www.w3.org/2000/svg">
<circle cx="21.7812" cy="21" r="7" fill="#1DAB6E"/>
<path d="M17.1545 0.947578C17.1545 0.425691 17.6716 0 18.3153 0C18.9596 0 19.4767 0.42348 19.4767 0.947578V5.09337C19.4767 5.61471 18.9596 6.04095 18.3153 6.04095C17.6716 6.04095 17.1545 5.61747 17.1545 5.09337V0.947578ZM21.8056 13.2418C23.8523 13.2418 25.7063 14.0677 27.0471 15.4028C28.389 16.738 29.2188 18.5834 29.2188 20.6212C29.2188 22.6556 28.389 24.5005 27.0471 25.8362L27.0448 25.8384C25.7013 27.1746 23.8484 28 21.8056 28C19.7583 28 17.9043 27.174 16.563 25.8384C15.2216 24.5038 14.3918 22.6584 14.3918 20.6212C14.3918 18.585 15.2222 16.7407 16.563 15.4051L16.5652 15.4028C17.9071 14.0683 19.7599 13.2418 21.8056 13.2418ZM26.2245 16.2216C25.0936 15.096 23.5312 14.3994 21.8056 14.3994C20.0788 14.3994 18.5153 15.096 17.3844 16.2205C16.2547 17.3461 15.5549 18.9024 15.5549 20.6212C15.5549 22.3389 16.2547 23.894 17.3855 25.0202C18.5169 26.1458 20.0793 26.8423 21.8056 26.8423C23.5329 26.8423 25.0959 26.1463 26.2245 25.0224L26.2273 25.0202C27.3564 23.8962 28.0557 22.3405 28.0557 20.6212C28.0557 18.9029 27.3559 17.3478 26.2245 16.2216ZM3.9427 13.4198C3.87661 13.4198 3.81773 13.1318 3.81773 12.7785C3.81773 12.4258 3.86938 12.1399 3.9427 12.1399H7.11082C7.17691 12.1399 7.23579 12.428 7.23579 12.7785C7.23579 13.1318 7.18358 13.4198 7.11082 13.4198H3.9427ZM8.99369 13.4198C8.92815 13.4198 8.86928 13.1318 8.86928 12.7785C8.86928 12.4258 8.92093 12.1399 8.99369 12.1399H12.1624C12.2279 12.1399 12.2868 12.428 12.2868 12.7785C12.2868 13.1318 12.2351 13.4198 12.1624 13.4198H8.99369ZM14.0447 13.4198C13.9791 13.4198 13.9203 13.1318 13.9203 12.7785C13.9203 12.4258 13.9719 12.1399 14.0447 12.1399H17.2133C17.2789 12.1399 17.3378 12.4258 17.3378 12.7763C17.0206 12.9725 16.7151 13.1881 16.4235 13.4198H14.0447ZM3.94992 17.0885C3.88383 17.0885 3.82495 16.8004 3.82495 16.4472C3.82495 16.0939 3.87661 15.8059 3.94992 15.8059H7.11804C7.18358 15.8059 7.24245 16.0939 7.24245 16.4472C7.24245 16.8004 7.1908 17.0885 7.11804 17.0885H3.94992ZM9.00035 17.0885C8.93481 17.0885 8.8765 16.8004 8.8765 16.4472C8.8765 16.0939 8.92815 15.8059 9.00035 15.8059H12.169C12.2351 15.8059 12.2934 16.0939 12.2934 16.4472C12.2934 16.8004 12.2423 17.0885 12.169 17.0885H9.00035ZM3.95659 20.7588C3.89105 20.7588 3.83217 20.4713 3.83217 20.1181C3.83217 19.7648 3.88383 19.4768 3.95659 19.4768H7.1247C7.1908 19.4768 7.24967 19.7648 7.24967 20.1181C7.24967 20.4713 7.19802 20.7588 7.1247 20.7588H3.95659ZM9.00757 20.7588C8.94203 20.7588 8.88316 20.4713 8.88316 20.1181C8.88316 19.7648 8.93481 19.4768 9.00757 19.4768H12.1762C12.2423 19.4768 12.3007 19.7648 12.3007 20.1181C12.3007 20.4713 12.249 20.7588 12.1762 20.7588H9.00757ZM6.72535 0.947578C6.72535 0.425691 7.24245 0 7.88674 0C8.53047 0 9.04756 0.42348 9.04756 0.947578V5.09337C9.04756 5.61471 8.52825 6.04095 7.88674 6.04095C7.24245 6.04095 6.72535 5.61747 6.72535 5.09337V0.947578ZM2.05983 9.06336H24.1728V4.29064C24.1728 4.127 24.1072 3.98436 24.0011 3.87932C23.8956 3.77373 23.7451 3.70794 23.5879 3.70794H21.4673C21.113 3.70794 20.8236 3.42046 20.8236 3.06719C20.8236 2.71392 21.113 2.42589 21.4673 2.42589H23.5879C24.1072 2.42589 24.5727 2.63431 24.9131 2.97376C25.2542 3.31321 25.4636 3.77594 25.4636 4.2934V11.8707C25.0403 11.7259 24.6054 11.6087 24.1589 11.5224V10.3382H24.1728H2.05983V22.6982C2.05983 22.8618 2.12592 23.0045 2.23145 23.1101C2.33754 23.2151 2.4875 23.2809 2.64524 23.2809H13.1538C13.2738 23.7254 13.4243 24.1583 13.6053 24.5746H2.6569C2.13981 24.5746 1.67214 24.3667 1.33112 24.0272C0.990643 23.69 0.78125 23.2273 0.78125 22.7098V4.29506C0.78125 3.78092 0.990643 3.31542 1.33112 2.97597C1.67214 2.63652 2.13759 2.42865 2.6569 2.42865H4.92024C5.27515 2.42865 5.56453 2.71613 5.56453 3.0694C5.56453 3.42267 5.27515 3.7107 4.92024 3.7107H2.6569C2.4925 3.7107 2.34864 3.77594 2.24312 3.88098C2.13759 3.98657 2.07149 4.1364 2.07149 4.2934V9.06612H2.05983V9.06336ZM10.9049 3.70794C10.55 3.70794 10.2606 3.42046 10.2606 3.06719C10.2606 2.71392 10.55 2.42589 10.9049 2.42589H15.2199C15.5749 2.42589 15.8637 2.71392 15.8637 3.06719C15.8637 3.42046 15.5749 3.70794 15.2199 3.70794H10.9049Z" fill="#1F2323"/>
<path d="M22.3515 16.6895L21.6488 20.0206L20.9359 19.0193C19.401 19.5933 18.5396 20.541 18.412 21.9996C17.1506 19.9434 17.9165 18.101 19.5141 17.0213L18.7873 16L22.3515 16.6895ZM21.2108 24.311L21.9142 20.98L22.627 21.9813C24.1613 21.4067 25.0233 20.4596 25.151 19.001C26.4117 21.0566 25.6458 22.899 24.0489 23.9787L24.7756 25L21.2108 24.311Z" fill="white"/>
</svg>
